<svg version="1.1" id="Layer_1" xmlns="http://www.w3.org/2000/svg" xmlns:xlink="http://www.w3.org/1999/xlink" x="0px" y="0px"
	 width="100%" viewBox="0 0 5100 5100" enable-background="new 0 0 5100 5100" xml:space="preserve">
<path fill="#FFFFFF" opacity="1.000000" stroke="none" 
	d="
M2840.000000,5104.000000 
	C1893.333374,5104.000000 948.666687,5104.000000 4.000000,5104.000000 
	C4.000000,3404.000000 4.000000,1704.000000 4.000000,4.000001 
	C1704.000000,4.000000 3404.000000,4.000000 5104.000000,4.000000 
	C5104.000000,1704.000000 5104.000000,3404.000000 5104.000000,5104.000000 
	C4350.000000,5104.000000 3596.000000,5104.000000 2840.000000,5104.000000 
M2699.263184,2757.887939 
	C2698.595947,2756.975586 2697.723145,2756.350098 2695.926270,2752.350586 
	C2695.886963,2740.363037 2695.700928,2728.372803 2695.895264,2716.389160 
	C2695.955322,2712.680420 2697.050293,2708.988525 2697.808350,2704.470703 
	C2715.503662,2704.470703 2732.090332,2704.603271 2748.673584,2704.433105 
	C2765.144775,2704.264404 2781.675049,2705.203369 2798.800293,2703.708008 
	C2799.922607,2695.349854 2800.580322,2688.457520 2797.909912,2680.450195 
	C2783.336914,2680.358643 2769.456543,2680.237305 2755.576416,2680.193848 
	C2741.590332,2680.150391 2727.593262,2679.840088 2713.621338,2680.282471 
	C2699.923828,2680.715820 2685.979248,2678.117676 2672.246338,2682.303955 
	C2671.979004,2686.372070 2671.569092,2689.659424 2671.576172,2692.945557 
	C2671.693115,2748.211182 2671.860352,2803.477051 2672.035645,2858.742676 
	C2672.037598,2859.395508 2672.145996,2860.125977 2672.456787,2860.678467 
	C2672.766113,2861.227539 2673.393555,2861.597656 2675.510742,2863.544922 
	C2687.667480,2863.627441 2701.508789,2863.758301 2715.350586,2863.805176 
	C2729.336426,2863.852295 2743.330078,2864.097656 2757.306885,2863.735840 
	C2771.061523,2863.380127 2785.002197,2865.519775 2799.003418,2861.998779 
	C2799.500732,2854.162842 2801.403076,2847.080078 2797.279785,2840.127686 
	C2763.727783,2838.348633 2730.578369,2840.876221 2696.346436,2838.630859 
	C2695.695801,2820.937988 2695.097412,2804.484863 2698.108154,2787.264893 
	C2699.021973,2786.599365 2699.648438,2785.727539 2703.677002,2783.935303 
	C2715.591309,2783.895508 2727.520264,2784.205078 2739.416260,2783.718750 
	C2751.681396,2783.217773 2764.228516,2785.892822 2777.338135,2781.355469 
	C2777.001221,2774.505127 2776.689697,2768.170654 2776.332275,2760.906982 
	C2768.534180,2760.636230 2762.029541,2760.317139 2755.521240,2760.201904 
	C2737.010986,2759.873535 2718.499756,2759.628662 2699.263184,2757.887939 
M4363.488770,2783.940674 
	C4371.471680,2784.094727 4379.697266,2783.084717 4387.379395,2784.683594 
	C4398.090820,2786.912842 4409.058594,2790.038330 4415.575195,2800.272949 
	C4428.762695,2820.985840 4441.821777,2841.780762 4455.181152,2862.933105 
	C4464.225586,2863.926514 4473.170898,2864.620605 4482.503906,2862.807129 
	C4475.010742,2846.223145 4451.414551,2808.789551 4435.907715,2785.335205 
	C4435.772461,2783.334473 4435.637207,2781.333496 4437.539062,2777.581299 
	C4443.120117,2772.932861 4448.770508,2768.365479 4454.268555,2763.620605 
	C4469.341797,2750.609619 4471.908691,2720.246826 4455.700195,2701.886230 
	C4442.897461,2687.384033 4427.167480,2680.428467 4408.222656,2680.246338 
	C4386.901367,2680.041504 4365.576172,2680.128662 4344.253906,2680.252930 
	C4340.465332,2680.275391 4336.681152,2681.099365 4332.417480,2681.610352 
	C4332.072266,2685.884033 4331.585449,2689.117676 4331.582520,2692.351807 
	C4331.535156,2745.659912 4331.505371,2798.968262 4331.644531,2852.276123 
	C4331.654297,2855.969971 4333.027832,2859.660156 4333.901367,2864.023926 
	C4341.324707,2863.581055 4347.734863,2863.198486 4355.074707,2862.760742 
	C4355.344238,2854.973145 4355.660156,2848.434814 4355.781250,2841.892822 
	C4356.112793,2823.925781 4356.362793,2805.957275 4358.108398,2787.265869 
	C4359.021484,2786.599121 4359.647949,2785.726807 4363.488770,2783.940674 
M3420.866455,2735.169678 
	C3421.892578,2735.455078 3422.918945,2735.740234 3425.112793,2738.554199 
	C3427.086914,2740.302490 3429.710938,2741.685059 3430.933350,2743.856445 
	C3441.440674,2762.520508 3455.419678,2778.762695 3467.368408,2796.420410 
	C3482.580078,2818.900635 3498.684570,2840.776367 3515.057373,2863.833008 
	C3518.361572,2863.833008 3522.336670,2864.017822 3526.286865,2863.783203 
	C3530.665283,2863.523438 3535.020752,2862.880127 3539.085205,2862.436523 
	C3541.570068,2837.470215 3540.952637,2696.921875 3538.216064,2680.759766 
	C3531.540771,2680.484619 3524.638428,2678.800049 3516.854980,2682.152344 
	C3516.619873,2689.077393 3516.255859,2695.619141 3516.199463,2702.163574 
	C3515.907959,2736.093262 3515.694336,2770.023438 3512.408447,2804.073242 
	C3510.387939,2804.281738 3508.367676,2804.490234 3504.252197,2803.135010 
	C3475.069580,2762.124512 3445.887207,2721.114014 3416.967773,2680.473145 
	C3408.551758,2680.506592 3401.340820,2678.943604 3394.739258,2681.796143 
	C3392.428223,2699.705078 3391.458252,2799.919189 3393.040283,2852.400146 
	C3393.136963,2855.603271 3393.811768,2858.789307 3394.264404,2862.353027 
	C3402.103271,2864.214355 3408.985352,2864.678467 3416.747803,2861.979248 
	C3416.960938,2854.788086 3417.280029,2848.226318 3417.328857,2841.662354 
	C3417.595703,2805.681641 3417.796387,2769.699951 3420.866455,2735.169678 
M571.809753,2730.898193 
	C571.859619,2731.650879 571.909546,2732.403809 568.839050,2733.124023 
	C557.353271,2735.886719 555.092346,2737.906982 555.432190,2746.296875 
	C555.644958,2751.549561 556.666199,2756.415527 559.797302,2761.257568 
	C571.171143,2778.845459 581.815613,2796.904785 592.757324,2814.772705 
	C618.770813,2857.253418 644.796936,2899.726562 671.186646,2942.804688 
	C679.677185,2945.406006 688.385986,2949.314697 697.467896,2950.612305 
	C720.101318,2953.846436 736.415405,2966.278564 749.857056,2983.645020 
	C751.447876,2985.700439 752.842224,2987.906738 754.351868,2990.026123 
	C763.545044,3002.932129 776.480957,3012.601562 784.989441,3026.229248 
	C789.055664,3032.741699 795.515564,3037.466064 800.154175,3044.071045 
	C807.618530,3054.699219 817.568420,3063.620361 825.206116,3074.428467 
	C829.676025,3080.753662 836.161499,3085.194580 840.421814,3092.287109 
	C845.027588,3099.954834 852.982361,3105.840332 860.152039,3111.672119 
	C866.861206,3117.129395 873.582581,3115.781494 879.406799,3108.928467 
	C881.118896,3106.914062 882.316406,3104.471436 883.878845,3102.318848 
	C902.593750,3076.538086 921.349548,3050.786621 940.057373,3025.000488 
	C947.465820,3014.788818 954.885193,3004.582520 962.099243,2994.233643 
	C966.151550,2988.420410 967.290955,2982.163818 963.767212,2975.493164 
	C962.216919,2972.558105 961.111389,2969.388672 959.790222,2966.331543 
	C942.638428,2926.645996 925.447327,2886.977051 908.374023,2847.257568 
	C906.071411,2841.900879 902.097900,2836.783203 904.785522,2829.815918 
	C905.798584,2828.694092 906.902222,2826.911377 908.480835,2825.808350 
	C928.930786,2811.521729 933.690063,2773.489990 914.234558,2750.364258 
	C897.246155,2730.170654 870.830017,2723.414551 847.478333,2733.619385 
	C824.602539,2743.616211 810.489929,2767.444580 813.202209,2791.493164 
	C816.089478,2817.093018 834.563049,2836.827637 860.299011,2841.671631 
	C865.491638,2842.648682 870.750305,2843.274902 877.392212,2844.275635 
	C896.942078,2889.626709 916.668579,2935.387451 936.221680,2980.745605 
	C934.549072,2984.156250 933.697449,2986.739990 932.184814,2988.849121 
	C912.386841,3016.454834 892.536804,3044.023193 872.535889,3071.481689 
	C871.172302,3073.353516 868.500366,3074.272705 866.062683,3075.881836 
	C862.284912,3071.918701 858.908081,3068.739990 855.946106,3065.212891 
	C823.384155,3026.438965 790.698181,2987.765869 758.525696,2948.670654 
	C751.828491,2940.532471 744.442505,2935.006104 734.197449,2932.650879 
	C724.471069,2930.414551 715.068481,2926.619385 705.281860,2924.835938 
	C694.372742,2922.847900 688.095398,2916.563232 682.584045,2907.446289 
	C654.324646,2860.700928 625.563538,2814.259277 597.023010,2767.683350 
	C594.942749,2764.288574 592.741943,2760.831299 591.518799,2757.100830 
	C590.840027,2755.030762 591.272461,2751.190430 592.654480,2750.225586 
	C594.202026,2749.144775 597.772217,2749.710205 599.782654,2750.805908 
	C603.844971,2753.020020 607.396729,2756.152344 611.253235,2758.767090 
	C616.203735,2762.123535 621.017029,2765.792969 626.312439,2768.500244 
	C631.971191,2771.393066 638.985107,2769.407471 642.618164,2764.855469 
	C646.648926,2759.804932 646.211731,2751.446045 640.927124,2746.709473 
	C635.986145,2742.281250 630.398804,2738.569580 625.061035,2734.589355 
	C592.861755,2710.580322 563.529785,2683.594482 539.052490,2651.592773 
	C510.116364,2613.760986 490.878693,2571.722168 486.268372,2524.000488 
	C479.332916,2452.211670 503.351746,2389.018555 542.102478,2330.258057 
	C542.941101,2328.986328 545.415100,2328.793457 547.205200,2328.065186 
	C549.951416,2335.211670 547.195068,2341.672607 546.298584,2348.148682 
	C541.711609,2381.286377 540.017761,2414.480713 544.252502,2447.768066 
	C548.351379,2479.987793 557.514221,2510.611328 578.070007,2536.300537 
	C610.154602,2576.398438 644.449524,2614.518066 684.278931,2647.276367 
	C687.789917,2650.164062 690.991577,2653.427490 692.955444,2655.241211 
	C692.955444,2663.776611 692.547424,2670.423584 693.026978,2677.005859 
	C694.968201,2703.650879 719.046997,2723.567627 745.304443,2720.509033 
	C772.129639,2717.384277 790.836914,2693.597168 787.420166,2666.956787 
	C783.896667,2639.484375 758.711548,2621.475586 730.890320,2626.885010 
	C724.464111,2628.134521 718.286011,2630.660400 710.898376,2632.936279 
	C696.383789,2620.664307 680.587708,2609.652100 668.901855,2595.173340 
	C675.803589,2586.279541 682.550293,2578.172363 688.657043,2569.608398 
	C708.382874,2541.945557 727.841736,2514.092285 747.476868,2486.364258 
	C752.443115,2479.351318 757.683716,2472.532959 762.135315,2466.520508 
	C782.307800,2464.405029 938.384583,2470.742432 954.632874,2474.102051 
	C966.643127,2498.212158 966.643127,2498.212158 1000.702881,2513.573242 
	C1004.462708,2600.510254 1015.007202,2687.832275 1011.670044,2775.416992 
	C1006.622437,2779.543945 1002.567322,2782.965088 998.401978,2786.246582 
	C981.654297,2799.438477 964.834961,2812.539795 948.130310,2825.785645 
	C943.967102,2829.086670 939.797913,2832.496338 936.228088,2836.401367 
	C931.139832,2841.967285 931.094666,2851.328125 935.527771,2856.563965 
	C938.325806,2859.868408 946.452026,2859.915039 952.195740,2856.500244 
	C953.890564,2855.492188 955.300232,2854.013672 956.878357,2852.799561 
	C973.183044,2840.259766 989.547546,2827.796875 1005.784180,2815.169189 
	C1014.164368,2808.651855 1022.362793,2801.898193 1030.565552,2795.156494 
	C1036.563721,2790.226318 1039.577026,2784.093750 1039.245117,2776.002441 
	C1038.863647,2766.699951 1039.410645,2757.359131 1041.923706,2747.870605 
	C1042.715210,2747.871582 1043.506836,2747.872559 1045.593628,2750.297852 
	C1047.129150,2751.567383 1049.095093,2752.555420 1050.137695,2754.147949 
	C1084.529419,2806.673340 1118.814697,2859.268799 1153.186279,2911.807617 
	C1155.693359,2915.639648 1157.975220,2920.643066 1161.666992,2922.483887 
	C1172.694214,2927.981445 1182.172974,2935.711914 1192.584229,2942.034912 
	C1206.892212,2950.725098 1221.408569,2959.072021 1234.347046,2966.689453 
	C1236.512085,2978.279541 1237.704468,2988.197510 1240.390869,2997.692627 
	C1241.951904,3003.209961 1244.659790,3009.897705 1249.022827,3012.851074 
	C1263.055298,3022.349609 1278.729492,3028.437744 1296.116211,3023.739746 
	C1315.407471,3018.527100 1326.804077,3004.888672 1330.209961,2985.812500 
	C1333.500488,2967.381836 1326.977295,2951.621826 1311.503784,2940.473145 
	C1295.428955,2928.890869 1278.078247,2927.858643 1260.744141,2937.040771 
	C1252.060303,2941.640625 1245.064819,2941.665283 1236.794556,2936.077881 
	C1223.027710,2926.777588 1208.788452,2918.109375 1194.310425,2909.952148 
	C1184.146118,2904.225098 1176.571655,2896.600830 1170.180542,2886.885498 
	C1130.076660,2825.921143 1089.846802,2765.036621 1049.082153,2704.513672 
	C1041.304321,2692.966064 1037.226074,2681.210205 1036.639526,2667.464844 
	C1035.219482,2634.191895 1033.181274,2600.944580 1031.324341,2567.690918 
	C1031.027832,2562.381836 1030.333984,2557.096191 1029.903931,2551.793213 
	C1028.560303,2535.226807 1027.114380,2518.659668 1028.439941,2503.150635 
	C1034.507080,2495.374756 1041.102783,2489.201660 1044.742676,2481.611572 
	C1048.341431,2474.106445 1048.954834,2465.169678 1051.034790,2456.183350 
	C1095.918579,2430.841797 1141.002197,2405.387451 1185.134644,2380.469971 
	C1190.530396,2382.363037 1194.232910,2383.895996 1198.064331,2384.967529 
	C1218.925049,2390.800537 1242.672485,2376.708008 1247.480835,2355.739502 
	C1252.784058,2332.613037 1235.680786,2309.504395 1211.774048,2307.684570 
	C1207.157593,2307.333496 1202.491455,2307.634521 1198.618408,2307.634521 
	C1178.459961,2290.619385 1067.134766,2179.111328 1056.902954,2165.808350 
	C1057.656738,2164.827148 1058.238892,2163.211914 1059.188843,2162.954346 
	C1176.714600,2131.113770 1294.267578,2099.373291 1412.281738,2067.502686 
	C1421.727661,2084.907715 1437.807739,2090.350586 1454.448975,2090.468262 
	C1474.536865,2090.610596 1489.581299,2079.614990 1497.859375,2060.830566 
	C1505.027100,2044.565918 1500.804077,2023.799316 1488.154907,2010.818359 
	C1474.045288,1996.338745 1455.282471,1992.082764 1436.885986,1999.439087 
	C1430.790039,2001.876587 1424.913940,2004.863892 1418.521729,2007.790161 
	C1414.005249,2018.761597 1409.497437,2029.712280 1404.619995,2041.560913 
	C1400.226929,2042.903198 1395.223022,2044.598389 1390.130737,2045.963867 
	C1268.583618,2078.554688 1147.041260,2111.163818 1025.424683,2143.493408 
	C1020.120361,2144.903076 1015.546631,2146.166260 1011.691711,2150.366699 
	C1002.232483,2160.673096 992.251892,2170.500732 982.768250,2180.785889 
	C978.379822,2185.544922 975.029907,2191.272949 970.569885,2195.952393 
	C957.246460,2209.931396 942.663330,2222.825195 930.365173,2237.632080 
	C918.864258,2251.479492 906.018494,2263.901367 893.675354,2276.846924 
	C881.391052,2289.730469 870.947754,2304.160400 858.061829,2316.598633 
	C843.296448,2330.850830 830.145935,2346.766846 816.129272,2361.806641 
	C805.679871,2373.019531 794.170776,2383.345703 784.594666,2395.242920 
	C774.627075,2407.626709 763.233765,2418.504150 752.398926,2429.983154 
	C750.124512,2432.392822 748.054626,2435.040039 746.179443,2437.775635 
	C730.301453,2460.939209 714.714783,2484.278564 697.754578,2506.714844 
	C683.189148,2525.982910 670.242920,2546.469482 656.261597,2566.190674 
	C654.177246,2569.130615 650.342041,2570.829346 647.139160,2573.235596 
	C632.821594,2560.579590 621.953979,2546.256348 609.948914,2532.946289 
	C592.535767,2513.639893 581.592468,2491.474609 575.376587,2466.488525 
	C565.690979,2427.554688 567.677063,2388.507812 573.761475,2349.430420 
	C578.070007,2321.758789 584.800903,2294.614258 592.902161,2267.811523 
	C593.863892,2264.629639 595.210815,2261.505859 595.706238,2258.252686 
	C596.913269,2250.325928 591.351746,2243.854248 583.318054,2243.429199 
	C576.932739,2243.091309 572.196106,2245.836914 567.536926,2250.247314 
	C549.232544,2267.574219 535.285828,2288.350342 521.099426,2308.827148 
	C504.125977,2333.327148 490.858215,2359.890869 480.175934,2387.801758 
	C465.483246,2426.191406 458.137878,2465.510254 458.494690,2506.871094 
	C458.965149,2561.399658 477.962952,2609.440430 505.696960,2654.750977 
	C523.147400,2683.260742 546.897827,2706.555176 571.809753,2730.898193 
M1621.791626,2823.873779 
	C1632.881226,2812.354980 1645.274536,2801.820801 1654.843018,2789.153320 
	C1706.206909,2721.153809 1721.730835,2645.322998 1700.564941,2562.746582 
	C1685.447754,2503.768311 1651.328369,2457.249268 1602.689941,2421.172607 
	C1522.379883,2361.603760 1420.564453,2356.876221 1331.150024,2399.605957 
	C1313.544922,2408.019287 1296.638184,2418.146973 1283.344360,2433.077148 
	C1282.469360,2434.059814 1281.439209,2435.100830 1280.263062,2435.589355 
	C1262.685547,2442.886230 1254.377197,2459.856201 1243.617554,2473.352051 
	C1230.249756,2490.119385 1220.182739,2509.642334 1212.094727,2530.014648 
	C1190.764160,2583.743652 1185.965088,2638.530762 1200.431396,2694.549805 
	C1206.563477,2718.295654 1214.967651,2741.301514 1228.293579,2762.296631 
	C1236.693848,2775.531250 1243.316162,2789.953857 1255.809326,2800.180908 
	C1263.198364,2817.526367 1281.731201,2824.033447 1292.593384,2838.000977 
	C1310.646851,2847.539307 1327.434082,2859.126221 1346.431885,2867.266602 
	C1435.691772,2905.513428 1543.021606,2893.164795 1621.791626,2823.873779 
M1828.988892,2809.951660 
	C1828.992554,2823.920898 1828.846802,2837.892822 1829.099487,2851.857666 
	C1829.166992,2855.589111 1830.452393,2859.298584 1831.339355,2863.840820 
	C1856.105347,2863.840820 1880.019409,2863.848145 1903.933472,2863.833252 
	C1907.923584,2863.830811 1911.931641,2863.951660 1915.900635,2863.632568 
	C1930.304077,2862.474365 1942.539795,2856.418945 1953.498413,2847.165283 
	C1970.236694,2833.031250 1976.892090,2797.645996 1954.032837,2780.263184 
	C1950.067993,2777.248291 1946.448364,2773.779297 1942.469849,2770.348145 
	C1946.383057,2766.797852 1949.338135,2764.120850 1952.289185,2761.439209 
	C1961.306519,2753.245361 1964.642212,2742.810791 1964.244263,2730.938232 
	C1963.720947,2715.323975 1956.881714,2702.888428 1944.723267,2693.396484 
	C1932.760620,2684.057617 1918.990601,2680.041016 1903.852905,2680.137695 
	C1883.232544,2680.269287 1862.610474,2680.110596 1841.989746,2680.216797 
	C1838.219482,2680.236328 1834.452759,2680.927246 1831.429688,2681.232666 
	C1830.330200,2683.880371 1829.410522,2685.066895 1829.404785,2686.257568 
	C1829.212524,2726.161621 1829.107300,2766.065918 1828.988892,2809.951660 
M3645.358887,2863.841797 
	C3681.394287,2865.248535 3710.015137,2851.593994 3730.711914,2821.832764 
	C3750.158203,2793.870361 3750.359131,2748.998535 3730.378662,2721.980957 
	C3710.685547,2695.352295 3684.979492,2679.517822 3650.691162,2680.113525 
	C3632.714600,2680.426025 3614.728027,2680.121094 3596.746582,2680.216797 
	C3593.562256,2680.233643 3590.380859,2680.851074 3586.335449,2681.283447 
	C3585.830322,2685.148682 3585.058594,2688.319824 3585.054688,2691.491943 
	C3584.986084,2745.437744 3584.981934,2799.383301 3585.098145,2853.328857 
	C3585.104980,2856.451660 3586.262939,2859.571533 3587.114258,2863.841797 
	C3605.715332,2863.841797 3623.619629,2863.841797 3645.358887,2863.841797 
M4105.333496,2847.286133 
	C4107.396973,2844.701172 4109.572266,2842.196777 4111.506836,2839.519043 
	C4130.120605,2813.755859 4117.511719,2774.102783 4080.781250,2767.657227 
	C4067.032959,2765.245117 4053.330566,2762.441406 4039.767822,2759.153564 
	C4031.424072,2757.131104 4023.212402,2754.276123 4015.253662,2751.029541 
	C4006.263672,2747.362793 4002.204346,2739.228516 4002.025635,2730.326172 
	C4001.830322,2720.586670 4006.229736,2712.119385 4015.577148,2707.585938 
	C4032.434814,2699.410400 4049.868652,2697.345947 4067.811035,2703.838623 
	C4070.237793,2704.717285 4072.942871,2705.731934 4074.657471,2707.513184 
	C4081.467285,2714.588135 4087.935547,2721.992432 4096.041992,2730.944092 
	C4097.732422,2730.944092 4101.703613,2731.167725 4105.639648,2730.893799 
	C4112.319336,2730.429932 4115.274414,2726.651855 4114.025391,2720.570312 
	C4111.503906,2708.297607 4105.003906,2698.576904 4094.957275,2691.207764 
	C4068.482422,2671.788574 4028.222412,2670.840088 4000.851318,2689.085693 
	C3987.579834,2697.932617 3978.491455,2709.628174 3977.315430,2726.151123 
	C3976.539551,2737.052734 3979.364258,2747.253906 3984.383545,2756.849609 
	C3986.166748,2760.259033 3988.052490,2765.927734 3990.472168,2766.253662 
	C3997.486328,2767.198730 3999.513184,2774.643311 4007.105713,2775.631836 
	C4026.843506,2778.201172 4046.161621,2783.873291 4065.867676,2786.847168 
	C4078.444824,2788.745117 4084.913818,2797.892578 4092.876465,2805.406494 
	C4096.687500,2809.002686 4096.883789,2818.762207 4093.254395,2822.200195 
	C4084.247314,2830.731689 4076.263428,2840.768066 4062.540039,2842.712402 
	C4046.375977,2845.002197 4030.733398,2844.125000 4015.443848,2838.128662 
	C4008.349609,2835.346191 4002.764404,2831.011719 3999.437500,2824.051270 
	C3997.769775,2820.561768 3996.201416,2817.024658 3994.694092,2813.739746 
	C3987.212646,2813.739746 3980.705811,2813.739746 3973.041260,2813.739746 
	C3973.875488,2819.062988 3974.785889,2823.449951 3975.215576,2827.883789 
	C3976.434082,2840.454346 3986.606934,2847.333496 3994.445801,2854.453857 
	C4000.802490,2860.228271 4011.113770,2862.203857 4020.021484,2864.513428 
	C4049.944092,2872.272217 4077.995361,2868.464355 4105.333496,2847.286133 
M2571.026123,2842.708740 
	C2556.299805,2845.048096 2541.765625,2844.547607 2527.717041,2839.154053 
	C2518.195557,2835.498291 2509.506836,2830.881104 2506.966064,2819.516357 
	C2506.460449,2817.254150 2503.880371,2815.455811 2501.824463,2812.907715 
	C2495.977051,2813.257080 2490.201904,2813.602051 2484.581299,2813.937744 
	C2483.359863,2831.177246 2488.090820,2843.793457 2498.434814,2852.030762 
	C2499.964600,2853.248779 2501.596436,2854.473389 2503.381348,2855.211426 
	C2509.473877,2857.730713 2515.579590,2860.257324 2521.816162,2862.382080 
	C2550.469482,2872.143799 2578.123535,2870.157227 2604.489258,2854.828369 
	C2633.403320,2838.017334 2638.454590,2796.987061 2609.827148,2776.097168 
	C2603.742188,2771.656982 2597.241211,2769.040039 2589.883057,2767.593262 
	C2572.902832,2764.253662 2555.910400,2760.838379 2539.160400,2756.531250 
	C2532.270752,2754.759521 2525.111572,2751.716309 2519.610596,2747.327148 
	C2506.525879,2736.886963 2508.521240,2717.158936 2523.149170,2708.765869 
	C2539.547852,2699.356201 2557.194092,2696.907471 2575.068604,2703.489502 
	C2583.981934,2706.771729 2593.151367,2710.926758 2597.975830,2720.251465 
	C2599.715332,2723.613037 2600.964600,2727.228271 2602.556641,2731.010986 
	C2606.977783,2731.010986 2610.296143,2731.243652 2613.565674,2730.943604 
	C2616.690430,2730.656982 2619.764648,2729.816406 2622.669189,2729.256104 
	C2622.669678,2710.542236 2616.132080,2698.703369 2600.531006,2688.938721 
	C2586.059082,2679.880859 2570.298340,2675.858154 2553.101562,2676.015381 
	C2535.157715,2676.179688 2519.624268,2683.607910 2504.010986,2690.760742 
	C2500.086914,2692.558105 2496.435547,2696.778809 2494.501709,2700.777344 
	C2486.064941,2718.222168 2483.046387,2736.195068 2492.365723,2754.445068 
	C2494.462891,2758.551025 2496.995361,2762.434570 2498.363037,2764.772461 
	C2511.916504,2774.868164 2526.335693,2777.455811 2540.749023,2780.093506 
	C2549.261230,2781.651367 2557.710938,2783.602783 2566.263428,2784.873047 
	C2576.177490,2786.345947 2584.540771,2791.395752 2593.477539,2795.304932 
	C2605.702393,2800.652832 2609.062744,2823.313232 2595.087158,2832.035889 
	C2588.605225,2836.081543 2581.243164,2838.716797 2571.026123,2842.708740 
M3130.865234,2766.780762 
	C3130.162354,2760.373291 3125.439941,2760.183838 3120.621826,2760.179932 
	C3100.661865,2760.163818 3080.701172,2760.237061 3060.742432,2760.079102 
	C3057.005371,2760.049561 3053.275635,2759.111572 3048.487549,2758.446045 
	C3048.487549,2748.768311 3048.362305,2740.201660 3048.523193,2731.640625 
	C3048.682129,2723.175049 3047.628906,2714.581055 3049.748535,2705.434814 
	C3061.767822,2703.719482 3073.002441,2704.706543 3084.159668,2704.534668 
	C3095.467529,2704.360352 3106.783447,2704.657959 3118.090332,2704.450684 
	C3129.250732,2704.245850 3140.507812,2705.423340 3152.184082,2703.423340 
	C3153.562500,2695.584717 3154.086914,2688.680664 3151.363281,2680.527344 
	C3130.467529,2679.813721 3109.948975,2679.921143 3089.463379,2680.266113 
	C3068.481445,2680.618896 3047.353760,2678.323486 3026.727783,2681.653809 
	C3024.418701,2699.991211 3023.501709,2798.322998 3025.036621,2852.328125 
	C3025.127197,2855.512695 3025.731934,2858.682861 3026.211426,2862.850830 
	C3040.830566,2864.725098 3054.697510,2863.606934 3068.484375,2863.798828 
	C3082.453613,2863.993408 3096.433105,2864.080078 3110.398438,2863.774414 
	C3124.183594,2863.473145 3138.103516,2865.275146 3151.857666,2862.402100 
	C3153.868408,2854.550537 3153.813232,2847.653809 3151.801025,2839.503662 
	C3139.543457,2839.503662 3128.328125,2839.503662 3117.112793,2839.503662 
	C3105.802246,2839.503662 3094.485107,2839.738281 3083.182617,2839.437012 
	C3072.110107,2839.142090 3060.856201,2840.835205 3048.587891,2837.809082 
	C3048.554688,2823.797119 3048.478516,2810.603271 3048.520996,2797.409912 
	C3048.533447,2793.575195 3048.885986,2789.741211 3049.146729,2784.656494 
	C3063.364746,2783.194092 3076.547852,2784.133301 3089.664062,2783.839844 
	C3102.790527,2783.546143 3115.988037,2784.528076 3129.966309,2783.022217 
	C3130.374512,2777.925537 3130.681152,2774.092529 3130.865234,2766.780762 
M2097.839600,2841.375244 
	C2092.618652,2842.253418 2087.399902,2843.866211 2082.176025,2843.883545 
	C2058.538086,2843.962891 2040.232666,2829.278564 2034.937622,2805.950439 
	C2033.631104,2800.194580 2033.446167,2794.096436 2033.418945,2788.152832 
	C2033.275635,2756.838623 2033.419800,2725.523682 2033.263184,2694.209717 
	C2033.241089,2689.798828 2032.114136,2685.393311 2031.529053,2681.203125 
	C2023.883667,2681.203125 2017.486450,2681.203125 2011.595459,2681.203125 
	C2010.540405,2683.398926 2009.492798,2684.565918 2009.486694,2685.738525 
	C2009.289185,2723.706055 2008.908691,2761.676270 2009.231567,2799.640625 
	C2009.346680,2813.159912 2015.663696,2825.261719 2020.966431,2837.439209 
	C2033.199219,2846.709473 2041.535767,2860.035156 2058.328125,2864.582520 
	C2109.938477,2878.558594 2155.358398,2846.033936 2155.776123,2792.949463 
	C2156.033203,2760.304443 2155.874023,2727.655273 2155.762939,2695.008545 
	C2155.747559,2690.533203 2154.928223,2686.060303 2154.442139,2681.196777 
	C2146.385254,2680.167236 2139.416504,2678.985352 2131.512451,2682.589355 
	C2131.512451,2689.566895 2131.515381,2696.148438 2131.511963,2702.729736 
	C2131.497070,2732.711670 2131.192871,2762.697998 2131.628418,2792.673340 
	C2131.770996,2802.487305 2129.563477,2811.525391 2123.608643,2818.616455 
	C2116.913330,2826.589355 2109.689941,2834.430176 2097.839600,2841.375244 
M3908.201660,2710.384766 
	C3908.201660,2734.378418 3907.287354,2758.417236 3908.477783,2782.351807 
	C3909.514404,2803.190430 3904.945801,2820.442139 3886.547852,2832.192627 
	C3881.640381,2840.598145 3873.272461,2842.551270 3864.627686,2843.602539 
	C3841.382568,2846.429199 3818.991211,2832.191895 3812.502441,2809.573242 
	C3810.158203,2801.401611 3809.560791,2792.522217 3809.459961,2783.950684 
	C3809.106934,2753.962891 3809.399170,2723.967773 3809.225830,2693.976807 
	C3809.200439,2689.609375 3807.975098,2685.248535 3807.352295,2681.193115 
	C3800.259766,2681.193115 3794.520020,2681.193115 3787.855225,2681.193115 
	C3787.404297,2685.233398 3786.792725,2688.404541 3786.744141,2691.584229 
	C3786.602051,2700.913086 3786.680176,2710.245361 3786.680176,2719.576172 
	C3786.679688,2745.569336 3786.823975,2771.563232 3786.637207,2797.555176 
	C3786.507080,2815.634521 3792.078369,2832.122070 3803.902588,2845.134521 
	C3823.824463,2867.058594 3849.860840,2872.227051 3877.815186,2865.482178 
	C3909.514404,2857.833740 3931.633301,2830.011963 3932.261475,2797.302246 
	C3932.952393,2761.325195 3932.441162,2725.324951 3932.357666,2689.334961 
	C3932.351807,2686.818115 3931.551025,2684.303711 3930.999512,2681.085938 
	C3923.320312,2680.077393 3916.420654,2679.370117 3908.639648,2682.081299 
	C3908.485107,2690.703613 3908.343506,2698.604248 3908.201660,2710.384766 
M4537.260254,2733.000732 
	C4543.555176,2742.843018 4549.076172,2753.009277 4557.307617,2761.765869 
	C4564.727051,2769.658203 4569.232910,2779.527588 4568.484863,2791.794434 
	C4567.313965,2810.997559 4568.075684,2830.325928 4568.254883,2849.598877 
	C4568.296387,2854.032471 4569.295410,2858.457031 4569.864258,2862.968750 
	C4577.422363,2862.968750 4583.851562,2862.968750 4591.382812,2862.968750 
	C4591.792969,2858.411133 4592.415527,2854.591064 4592.434570,2850.767822 
	C4592.536133,2830.164307 4592.707520,2809.556641 4592.391113,2788.957520 
	C4592.252930,2779.957275 4594.567871,2772.486084 4600.010254,2765.061768 
	C4618.008789,2740.507812 4635.350098,2715.471191 4652.811523,2690.526855 
	C4654.525879,2688.077148 4655.330566,2684.990234 4657.126953,2680.904785 
	C4646.887695,2680.904785 4638.453125,2680.904785 4628.609375,2680.904785 
	C4623.695312,2688.101807 4618.666016,2695.655762 4613.439453,2703.071289 
	C4607.875488,2710.965820 4603.200195,2719.938477 4596.150391,2726.206055 
	C4589.242188,2732.348633 4589.806641,2743.792236 4578.722168,2747.879395 
	C4562.564941,2725.389648 4546.437988,2702.941895 4530.367676,2680.572998 
	C4521.200195,2680.318115 4512.810547,2679.054199 4504.414062,2681.544434 
	C4504.601074,2684.339355 4504.035156,2686.769287 4504.981934,2688.197510 
	C4509.626953,2695.207520 4514.751465,2701.896973 4519.558594,2708.803223 
	C4524.739746,2716.246826 4529.755371,2723.805664 4537.260254,2733.000732 
M2900.175781,2841.346680 
	C2900.956055,2848.430908 2898.377686,2855.936523 2902.670898,2863.077637 
	C2909.841797,2863.539307 2916.927002,2865.446045 2924.487549,2860.959473 
	C2924.487549,2854.165771 2924.486816,2847.562988 2924.487793,2840.960449 
	C2924.489990,2822.982422 2924.667969,2805.002197 2924.413330,2787.027832 
	C2924.304932,2779.396484 2926.281006,2772.939941 2930.811768,2766.683105 
	C2948.701660,2741.978271 2966.284912,2717.050781 2983.815430,2692.088623 
	C2985.903076,2689.115967 2986.966064,2685.424072 2989.070801,2680.827637 
	C2978.778076,2680.827637 2970.298096,2680.827637 2960.706299,2680.827637 
	C2955.574951,2688.253418 2950.471680,2695.787354 2945.211426,2703.209717 
	C2939.614990,2711.106934 2934.949707,2720.116211 2927.881104,2726.390137 
	C2921.015381,2732.483643 2921.857910,2744.186768 2910.589111,2747.773926 
	C2894.367188,2725.172852 2878.215088,2702.669189 2862.484863,2680.753174 
	C2853.163330,2680.753174 2845.262207,2680.753174 2836.228027,2680.753174 
	C2836.816895,2684.549316 2836.245117,2688.444824 2837.923584,2690.522705 
	C2857.118896,2714.286133 2872.096436,2741.083984 2891.583008,2764.637451 
	C2897.900146,2772.272949 2901.115723,2780.976562 2900.426514,2791.586914 
	C2899.436523,2806.837158 2900.175049,2822.199707 2900.175781,2841.346680 
M4236.461914,2782.001465 
	C4236.466309,2760.018066 4236.365723,2738.033936 4236.576172,2716.052490 
	C4236.611328,2712.363525 4237.992676,2708.687500 4238.667480,2705.412109 
	C4258.111816,2702.562744 4276.833984,2707.038818 4295.874512,2702.290527 
	C4295.558594,2695.071289 4295.277832,2688.644775 4294.943359,2680.989258 
	C4278.797852,2679.399170 4263.577637,2680.393555 4248.422363,2680.224365 
	C4232.436523,2680.045898 4216.445312,2680.049072 4200.459473,2680.223633 
	C4185.319824,2680.388916 4170.114258,2679.423584 4153.767090,2680.969482 
	C4153.708496,2689.234863 4150.952637,2696.169922 4155.862305,2703.806396 
	C4173.785156,2705.851074 4192.385254,2702.925049 4211.342285,2705.530029 
	C4212.989258,2719.203369 4211.988770,2731.788330 4212.161133,2744.309814 
	C4212.344238,2757.630615 4212.202148,2770.955811 4212.202148,2784.279053 
	C4212.202148,2796.936035 4212.104004,2809.594238 4212.229004,2822.250000 
	C4212.359863,2835.423584 4211.633301,2848.648438 4212.836426,2862.358887 
	C4221.053223,2864.253906 4227.911133,2864.250732 4236.092285,2862.492920 
	C4236.824219,2836.380615 4236.295410,2811.182129 4236.461914,2782.001465 
M2361.907227,2680.718018 
	C2355.421631,2680.297607 2348.828613,2678.830811 2342.898193,2681.880371 
	C2340.137207,2701.004883 2340.345459,2845.782715 2343.039551,2861.562500 
	C2358.136963,2864.579346 2427.891602,2864.773193 2446.724365,2861.684326 
	C2448.271240,2854.964355 2448.245361,2848.101807 2446.538330,2839.891113 
	C2437.093018,2839.753174 2428.557861,2839.575439 2420.022217,2839.517822 
	C2410.698486,2839.455078 2401.369385,2839.687256 2392.051514,2839.449219 
	C2383.642822,2839.234863 2375.014893,2840.725098 2366.030273,2837.781738 
	C2365.783447,2830.325439 2365.390381,2823.776123 2365.379395,2817.226074 
	C2365.318604,2780.595703 2365.402100,2743.964844 2365.309570,2707.334717 
	C2365.289307,2699.368896 2364.751709,2691.404297 2361.907227,2680.718018 
M2223.011230,2706.593750 
	C2222.247803,2698.184814 2225.025879,2689.393555 2220.635254,2681.277344 
	C2213.932129,2681.277344 2207.579834,2681.277344 2200.001221,2681.277344 
	C2199.056396,2702.114014 2199.630127,2721.940918 2199.534668,2741.743408 
	C2199.435059,2762.341064 2199.225342,2782.944824 2199.594971,2803.536377 
	C2199.947998,2823.181152 2197.944580,2842.956055 2200.913818,2862.278076 
	C2225.923584,2865.024658 2289.000488,2864.454346 2303.509033,2861.394775 
	C2304.723633,2854.533203 2305.218506,2847.614014 2302.922363,2840.079102 
	C2276.348145,2838.523926 2250.589355,2840.562744 2225.731201,2838.923828 
	C2224.517334,2836.322510 2223.514893,2835.172607 2223.508545,2834.017822 
	C2223.284912,2792.833984 2223.154541,2751.649902 2223.011230,2706.593750 
M3348.461914,2781.999268 
	C3348.460693,2752.790527 3348.528076,2723.581787 3348.385742,2694.373535 
	C3348.364014,2689.949463 3347.365234,2685.530029 3346.770508,2680.722656 
	C3338.701172,2680.634277 3331.553711,2678.476074 3324.313721,2683.269531 
	C3324.313721,2741.185303 3324.297607,2798.885498 3324.385742,2856.585693 
	C3324.388672,2858.418701 3325.459961,2860.250244 3326.237793,2862.737061 
	C3333.307861,2864.102539 3340.170166,2864.492920 3347.715332,2862.250244 
	C3349.196533,2836.248047 3348.124756,2811.108643 3348.461914,2781.999268 
z"/>
<path fill="#E4A330" opacity="1.000000" stroke="none" 
	d="
M1039.554321,2748.035156 
	C1039.410645,2757.359131 1038.863647,2766.699951 1039.245117,2776.002441 
	C1039.577026,2784.093750 1036.563721,2790.226318 1030.565552,2795.156494 
	C1022.362793,2801.898193 1014.164368,2808.651855 1005.784180,2815.169189 
	C989.547546,2827.796875 973.183044,2840.259766 956.878357,2852.799561 
	C955.300232,2854.013672 953.890564,2855.492188 952.195740,2856.500244 
	C946.452026,2859.915039 938.325806,2859.868408 935.527771,2856.563965 
	C931.094666,2851.328125 931.139832,2841.967285 936.228088,2836.401367 
	C939.797913,2832.496338 943.967102,2829.086670 948.130310,2825.785645 
	C964.834961,2812.539795 981.654297,2799.438477 998.401978,2786.246582 
	C1002.567322,2782.965088 1006.622437,2779.543945 1011.670044,2775.416992 
	C1015.007202,2687.832275 1004.462708,2600.510254 1000.702881,2513.573242 
	C966.643127,2498.212158 966.643127,2498.212158 954.632874,2474.102051 
	C938.384583,2470.742432 782.307800,2464.405029 762.135315,2466.520508 
	C757.683716,2472.532959 752.443115,2479.351318 747.476868,2486.364258 
	C727.841736,2514.092285 708.382874,2541.945557 688.657043,2569.608398 
	C682.550293,2578.172363 675.803589,2586.279541 668.901855,2595.173340 
	C680.587708,2609.652100 696.383789,2620.664307 710.898376,2632.936279 
	C718.286011,2630.660400 724.464111,2628.134521 730.890320,2626.885010 
	C758.711548,2621.475586 783.896667,2639.484375 787.420166,2666.956787 
	C790.836914,2693.597168 772.129639,2717.384277 745.304443,2720.509033 
	C719.046997,2723.567627 694.968201,2703.650879 693.026978,2677.005859 
	C692.547424,2670.423584 692.955444,2663.776611 692.955444,2655.241211 
	C690.991577,2653.427490 687.789917,2650.164062 684.278931,2647.276367 
	C644.449524,2614.518066 610.154602,2576.398438 578.070007,2536.300537 
	C557.514221,2510.611328 548.351379,2479.987793 544.252502,2447.768066 
	C540.017761,2414.480713 541.711609,2381.286377 546.298584,2348.148682 
	C547.195068,2341.672607 549.951416,2335.211670 547.205200,2328.065186 
	C545.415100,2328.793457 542.941101,2328.986328 542.102478,2330.258057 
	C503.351746,2389.018555 479.332916,2452.211670 486.268372,2524.000488 
	C490.878693,2571.722168 510.116364,2613.760986 539.052490,2651.592773 
	C563.529785,2683.594482 592.861755,2710.580322 625.061035,2734.589355 
	C630.398804,2738.569580 635.986145,2742.281250 640.927124,2746.709473 
	C646.211731,2751.446045 646.648926,2759.804932 642.618164,2764.855469 
	C638.985107,2769.407471 631.971191,2771.393066 626.312439,2768.500244 
	C621.017029,2765.792969 616.203735,2762.123535 611.253235,2758.767090 
	C607.396729,2756.152344 603.844971,2753.020020 599.782654,2750.805908 
	C597.772217,2749.710205 594.202026,2749.144775 592.654480,2750.225586 
	C591.272461,2751.190430 590.840027,2755.030762 591.518799,2757.100830 
	C592.741943,2760.831299 594.942749,2764.288574 597.023010,2767.683350 
	C625.563538,2814.259277 654.324646,2860.700928 682.584045,2907.446289 
	C688.095398,2916.563232 694.372742,2922.847900 705.281860,2924.835938 
	C715.068481,2926.619385 724.471069,2930.414551 734.197449,2932.650879 
	C744.442505,2935.006104 751.828491,2940.532471 758.525696,2948.670654 
	C790.698181,2987.765869 823.384155,3026.438965 855.946106,3065.212891 
	C858.908081,3068.739990 862.284912,3071.918701 866.062683,3075.881836 
	C868.500366,3074.272705 871.172302,3073.353516 872.535889,3071.481689 
	C892.536804,3044.023193 912.386841,3016.454834 932.184814,2988.849121 
	C933.697449,2986.739990 934.549072,2984.156250 936.221680,2980.745605 
	C916.668579,2935.387451 896.942078,2889.626709 877.392212,2844.275635 
	C870.750305,2843.274902 865.491638,2842.648682 860.299011,2841.671631 
	C834.563049,2836.827637 816.089478,2817.093018 813.202209,2791.493164 
	C810.489929,2767.444580 824.602539,2743.616211 847.478333,2733.619385 
	C870.830017,2723.414551 897.246155,2730.170654 914.234558,2750.364258 
	C933.690063,2773.489990 928.930786,2811.521729 908.480835,2825.808350 
	C906.902222,2826.911377 905.798584,2828.694092 904.785522,2829.815918 
	C902.097900,2836.783203 906.071411,2841.900879 908.374023,2847.257568 
	C925.447327,2886.977051 942.638428,2926.645996 959.790222,2966.331543 
	C961.111389,2969.388672 962.216919,2972.558105 963.767212,2975.493164 
	C967.290955,2982.163818 966.151550,2988.420410 962.099243,2994.233643 
	C954.885193,3004.582520 947.465820,3014.788818 940.057373,3025.000488 
	C921.349548,3050.786621 902.593750,3076.538086 883.878845,3102.318848 
	C882.316406,3104.471436 881.118896,3106.914062 879.406799,3108.928467 
	C873.582581,3115.781494 866.861206,3117.129395 860.152039,3111.672119 
	C852.982361,3105.840332 845.027588,3099.954834 840.421814,3092.287109 
	C836.161499,3085.194580 829.676025,3080.753662 825.206116,3074.428467 
	C817.568420,3063.620361 807.618530,3054.699219 800.154175,3044.071045 
	C795.515564,3037.466064 789.055664,3032.741699 784.989441,3026.229248 
	C776.480957,3012.601562 763.545044,3002.932129 754.351868,2990.026123 
	C752.842224,2987.906738 751.447876,2985.700439 749.857056,2983.645020 
	C736.415405,2966.278564 720.101318,2953.846436 697.467896,2950.612305 
	C688.385986,2949.314697 679.677185,2945.406006 671.186646,2942.804688 
	C644.796936,2899.726562 618.770813,2857.253418 592.757324,2814.772705 
	C581.815613,2796.904785 571.171143,2778.845459 559.797302,2761.257568 
	C556.666199,2756.415527 555.644958,2751.549561 555.432190,2746.296875 
	C555.092346,2737.906982 557.353271,2735.886719 571.131958,2734.020996 
	C575.058960,2734.994385 576.692932,2735.070801 578.326965,2735.147217 
	C577.721924,2733.733643 577.449768,2731.968994 576.425476,2730.997559 
	C575.217163,2729.851562 573.357971,2729.392090 571.781006,2728.635010 
	C546.897827,2706.555176 523.147400,2683.260742 505.696960,2654.750977 
	C477.962952,2609.440430 458.965149,2561.399658 458.494690,2506.871094 
	C458.137878,2465.510254 465.483246,2426.191406 480.175934,2387.801758 
	C490.858215,2359.890869 504.125977,2333.327148 521.099426,2308.827148 
	C535.285828,2288.350342 549.232544,2267.574219 567.536926,2250.247314 
	C572.196106,2245.836914 576.932739,2243.091309 583.318054,2243.429199 
	C591.351746,2243.854248 596.913269,2250.325928 595.706238,2258.252686 
	C595.210815,2261.505859 593.863892,2264.629639 592.902161,2267.811523 
	C584.800903,2294.614258 578.070007,2321.758789 573.761475,2349.430420 
	C567.677063,2388.507812 565.690979,2427.554688 575.376587,2466.488525 
	C581.592468,2491.474609 592.535767,2513.639893 609.948914,2532.946289 
	C621.953979,2546.256348 632.821594,2560.579590 647.139160,2573.235596 
	C650.342041,2570.829346 654.177246,2569.130615 656.261597,2566.190674 
	C670.242920,2546.469482 683.189148,2525.982910 697.754578,2506.714844 
	C714.714783,2484.278564 730.301453,2460.939209 746.179443,2437.775635 
	C748.054626,2435.040039 750.124512,2432.392822 752.398926,2429.983154 
	C763.233765,2418.504150 774.627075,2407.626709 784.594666,2395.242920 
	C794.170776,2383.345703 805.679871,2373.019531 816.129272,2361.806641 
	C830.145935,2346.766846 843.296448,2330.850830 858.061829,2316.598633 
	C870.947754,2304.160400 881.391052,2289.730469 893.675354,2276.846924 
	C906.018494,2263.901367 918.864258,2251.479492 930.365173,2237.632080 
	C942.663330,2222.825195 957.246460,2209.931396 970.569885,2195.952393 
	C975.029907,2191.272949 978.379822,2185.544922 982.768250,2180.785889 
	C992.251892,2170.500732 1002.232483,2160.673096 1011.691711,2150.366699 
	C1015.546631,2146.166260 1020.120361,2144.903076 1025.424683,2143.493408 
	C1147.041260,2111.163818 1268.583618,2078.554688 1390.130737,2045.963867 
	C1395.223022,2044.598389 1400.226929,2042.903198 1404.619995,2041.560913 
	C1409.497437,2029.712280 1414.005249,2018.761597 1418.521729,2007.790161 
	C1424.913940,2004.863892 1430.790039,2001.876587 1436.885986,1999.439087 
	C1455.282471,1992.082764 1474.045288,1996.338745 1488.154907,2010.818359 
	C1500.804077,2023.799316 1505.027100,2044.565918 1497.859375,2060.830566 
	C1489.581299,2079.614990 1474.536865,2090.610596 1454.448975,2090.468262 
	C1437.807739,2090.350586 1421.727661,2084.907715 1412.281738,2067.502686 
	C1294.267578,2099.373291 1176.714600,2131.113770 1059.188843,2162.954346 
	C1058.238892,2163.211914 1057.656738,2164.827148 1056.904663,2165.809570 
	C1067.134766,2179.111328 1178.459961,2290.619385 1198.618408,2307.634521 
	C1202.491455,2307.634521 1207.157593,2307.333496 1211.774048,2307.684570 
	C1235.680786,2309.504395 1252.784058,2332.613037 1247.480835,2355.739502 
	C1242.672485,2376.708008 1218.925049,2390.800537 1198.064331,2384.967529 
	C1194.232910,2383.895996 1190.530396,2382.363037 1185.134644,2380.469971 
	C1141.002197,2405.387451 1095.918579,2430.841797 1051.034790,2456.183350 
	C1048.954834,2465.169678 1048.341431,2474.106445 1044.742676,2481.611572 
	C1041.102783,2489.201660 1034.507080,2495.374756 1028.439941,2503.150635 
	C1027.114380,2518.659668 1028.560303,2535.226807 1029.903931,2551.793213 
	C1030.333984,2557.096191 1031.027832,2562.381836 1031.324341,2567.690918 
	C1033.181274,2600.944580 1035.219482,2634.191895 1036.639526,2667.464844 
	C1037.226074,2681.210205 1041.304321,2692.966064 1049.082153,2704.513672 
	C1089.846802,2765.036621 1130.076660,2825.921143 1170.180542,2886.885498 
	C1176.571655,2896.600830 1184.146118,2904.225098 1194.310425,2909.952148 
	C1208.788452,2918.109375 1223.027710,2926.777588 1236.794556,2936.077881 
	C1245.064819,2941.665283 1252.060303,2941.640625 1260.744141,2937.040771 
	C1278.078247,2927.858643 1295.428955,2928.890869 1311.503784,2940.473145 
	C1326.977295,2951.621826 1333.500488,2967.381836 1330.209961,2985.812500 
	C1326.804077,3004.888672 1315.407471,3018.527100 1296.116211,3023.739746 
	C1278.729492,3028.437744 1263.055298,3022.349609 1249.022827,3012.851074 
	C1244.659790,3009.897705 1241.951904,3003.209961 1240.390869,2997.692627 
	C1237.704468,2988.197510 1236.512085,2978.279541 1234.347046,2966.689453 
	C1221.408569,2959.072021 1206.892212,2950.725098 1192.584229,2942.034912 
	C1182.172974,2935.711914 1172.694214,2927.981445 1161.666992,2922.483887 
	C1157.975220,2920.643066 1155.693359,2915.639648 1153.186279,2911.807617 
	C1118.814697,2859.268799 1084.529419,2806.673340 1050.137695,2754.147949 
	C1049.095093,2752.555420 1047.129150,2751.567383 1045.048828,2747.962891 
	C1043.664185,2743.343506 1042.633545,2740.507324 1039.682617,2741.969971 
	C1036.872314,2743.362793 1037.840820,2745.950195 1039.554321,2748.035156 
M960.049438,2440.437988 
	C961.543579,2438.233398 962.963867,2435.974121 964.543152,2433.832275 
	C981.411743,2410.957520 1013.964111,2411.045898 1030.521973,2424.896729 
	C1033.024170,2426.989502 1035.769653,2428.791504 1038.116943,2430.518311 
	C1058.596436,2422.279053 1155.980835,2366.788086 1167.594238,2357.042480 
	C1169.459229,2345.251953 1171.204468,2334.218018 1173.012817,2322.785156 
	C1170.816650,2320.307617 1168.755493,2317.710693 1166.421143,2315.388916 
	C1122.486694,2271.688721 1078.537354,2228.003662 1034.509399,2184.397949 
	C1032.269043,2182.179199 1029.293701,2180.702393 1026.278442,2178.615479 
	C1022.888916,2181.927734 1019.944397,2184.572021 1017.262573,2187.460205 
	C967.418335,2241.142822 917.613586,2294.862061 867.782410,2348.556641 
	C844.223633,2373.941895 820.591431,2399.259033 797.090637,2424.697754 
	C794.108521,2427.925781 789.725464,2430.767578 791.906860,2437.755859 
	C795.711243,2438.309570 800.107788,2439.341553 804.540527,2439.531738 
	C837.797302,2440.960449 871.053528,2442.505127 904.326172,2443.423096 
	C922.212646,2443.916504 940.131226,2443.245361 960.049438,2440.437988 
M1018.474060,2450.594971 
	C1012.951965,2443.709717 1005.801453,2441.569824 997.285828,2443.221436 
	C988.336365,2444.956787 983.354553,2450.965820 981.791321,2459.287842 
	C980.186951,2467.827881 984.105591,2474.739014 991.060486,2479.753906 
	C997.687378,2484.531982 1004.837219,2484.759033 1011.416931,2480.157471 
	C1015.033875,2477.627930 1018.179993,2473.983398 1020.551636,2470.219727 
	C1024.010742,2464.730469 1023.102478,2458.816162 1018.474060,2450.594971 
M1273.757446,2995.841064 
	C1282.420898,3001.007080 1290.216064,2998.924316 1297.302246,2992.739990 
	C1304.308594,2986.625488 1306.110596,2977.299561 1302.122314,2969.406982 
	C1297.770996,2960.795898 1287.590942,2955.969971 1279.097290,2958.491699 
	C1269.057739,2961.472656 1263.250366,2969.053711 1263.526855,2978.707275 
	C1263.709106,2985.070557 1266.602173,2990.022949 1273.757446,2995.841064 
M724.471375,2685.714600 
	C728.499634,2690.765869 733.751587,2692.952148 740.194580,2692.871094 
	C749.782593,2692.750488 757.324280,2687.432861 759.653015,2678.837891 
	C762.260010,2669.215576 758.253723,2660.020752 749.362061,2655.218994 
	C740.841553,2650.617432 732.729980,2651.928467 725.858215,2659.277588 
	C719.205566,2666.392334 717.913147,2674.375244 724.471375,2685.714600 
M1467.824951,2058.262695 
	C1469.854370,2054.926514 1472.675537,2051.828125 1473.763062,2048.208984 
	C1476.877197,2037.845947 1469.900146,2026.553833 1459.327026,2023.853149 
	C1447.907837,2020.936279 1436.776123,2028.002197 1434.010254,2039.922729 
	C1431.742798,2049.694824 1439.874512,2061.432129 1450.398438,2063.288330 
	C1455.755371,2064.233154 1460.899780,2063.431885 1467.824951,2058.262695 
M587.718079,2742.367432 
	C586.817200,2742.081787 585.916321,2741.796387 585.015442,2741.510742 
	C585.317505,2742.375488 585.619507,2743.240234 587.718079,2742.367432 
z"/>
<path fill="#1C5466" opacity="1.000000" stroke="none" 
	d="
M1620.715576,2824.807617 
	C1543.021606,2893.164795 1435.691772,2905.513428 1346.431885,2867.266602 
	C1327.434082,2859.126221 1310.646851,2847.539307 1292.593384,2838.000977 
	C1281.731201,2824.033447 1263.198364,2817.526367 1255.809326,2800.180908 
	C1243.316162,2789.953857 1236.693848,2775.531250 1228.293579,2762.296631 
	C1214.967651,2741.301514 1206.563477,2718.295654 1200.431396,2694.549805 
	C1185.965088,2638.530762 1190.764160,2583.743652 1212.094727,2530.014648 
	C1220.182739,2509.642334 1230.249756,2490.119385 1243.617554,2473.352051 
	C1254.377197,2459.856201 1262.685547,2442.886230 1280.263062,2435.589355 
	C1281.439209,2435.100830 1282.469360,2434.059814 1283.344360,2433.077148 
	C1296.638184,2418.146973 1313.544922,2408.019287 1331.150024,2399.605957 
	C1420.564453,2356.876221 1522.379883,2361.603760 1602.689941,2421.172607 
	C1651.328369,2457.249268 1685.447754,2503.768311 1700.564941,2562.746582 
	C1721.730835,2645.322998 1706.206909,2721.153809 1654.843018,2789.153320 
	C1645.274536,2801.820801 1632.881226,2812.354980 1620.715576,2824.807617 
M1640.871704,2497.451904 
	C1629.788208,2481.505371 1616.863281,2467.208496 1602.104858,2454.603027 
	C1551.867065,2411.693848 1493.560669,2393.398438 1428.065430,2399.706787 
	C1358.430908,2406.413818 1303.070312,2439.499756 1262.408447,2495.905762 
	C1224.356445,2548.691650 1211.548828,2607.914551 1223.193115,2672.102783 
	C1232.160156,2721.533936 1254.929443,2763.684082 1291.689819,2797.904541 
	C1349.154175,2851.398438 1416.941162,2871.511963 1494.164429,2857.768555 
	C1545.774292,2848.583252 1589.080322,2823.370361 1623.783081,2784.286865 
	C1666.975830,2735.641602 1686.624634,2678.288818 1682.363403,2613.386230 
	C1679.649658,2572.052490 1665.956177,2534.101074 1640.871704,2497.451904 
z"/>
<path fill="#1E5668" opacity="1.000000" stroke="none" 
	d="
M1828.989136,2807.960938 
	C1829.107300,2766.065918 1829.212524,2726.161621 1829.404785,2686.257568 
	C1829.410522,2685.066895 1830.330200,2683.880371 1831.429688,2681.232666 
	C1834.452759,2680.927246 1838.219482,2680.236328 1841.989746,2680.216797 
	C1862.610474,2680.110596 1883.232544,2680.269287 1903.852905,2680.137695 
	C1918.990601,2680.041016 1932.760620,2684.057617 1944.723267,2693.396484 
	C1956.881714,2702.888428 1963.720947,2715.323975 1964.244263,2730.938232 
	C1964.642212,2742.810791 1961.306519,2753.245361 1952.289185,2761.439209 
	C1949.338135,2764.120850 1946.383057,2766.797852 1942.469849,2770.348145 
	C1946.448364,2773.779297 1950.067993,2777.248291 1954.032837,2780.263184 
	C1976.892090,2797.645996 1970.236694,2833.031250 1953.498413,2847.165283 
	C1942.539795,2856.418945 1930.304077,2862.474365 1915.900635,2863.632568 
	C1911.931641,2863.951660 1907.923584,2863.830811 1903.933472,2863.833252 
	C1880.019409,2863.848145 1856.105347,2863.840820 1831.339355,2863.840820 
	C1830.452393,2859.298584 1829.166992,2855.589111 1829.099487,2851.857666 
	C1828.846802,2837.892822 1828.992554,2823.920898 1828.989136,2807.960938 
M1904.729858,2783.754639 
	C1896.125488,2783.753662 1887.516235,2783.572266 1878.918091,2783.802979 
	C1870.542969,2784.027588 1861.960693,2782.552734 1852.134399,2785.753418 
	C1853.707886,2803.745361 1849.982910,2821.269043 1854.642700,2839.530273 
	C1874.610107,2839.530273 1893.755371,2839.805664 1912.883057,2839.347168 
	C1917.988037,2839.224854 1923.410156,2837.618408 1928.037354,2835.362061 
	C1937.365845,2830.813477 1944.141602,2824.052246 1944.291382,2812.503662 
	C1944.450684,2800.218994 1937.848511,2792.450439 1927.513794,2787.985840 
	C1921.623413,2785.440918 1914.777466,2785.107910 1904.729858,2783.754639 
M1874.463135,2704.405029 
	C1867.472412,2705.265137 1859.950439,2702.421387 1852.395752,2707.621826 
	C1852.395752,2715.938232 1852.269287,2724.501465 1852.431274,2733.059082 
	C1852.591309,2741.510254 1851.577759,2750.078125 1853.328003,2758.117920 
	C1866.604248,2760.268066 1905.309937,2760.989990 1913.617554,2759.450439 
	C1921.017212,2758.079102 1927.425171,2754.723877 1932.674927,2749.419922 
	C1942.508545,2739.485107 1942.566528,2725.772705 1932.890259,2715.611084 
	C1925.625000,2707.980957 1916.416138,2704.684570 1906.079956,2704.473389 
	C1896.797729,2704.283447 1887.508789,2704.415039 1874.463135,2704.405029 
z"/>
<path fill="#1E5668" opacity="1.000000" stroke="none" 
	d="
M3515.453613,2803.953613 
	C3515.694336,2770.023438 3515.907959,2736.093262 3516.199463,2702.163574 
	C3516.255859,2695.619141 3516.619873,2689.077393 3516.854980,2682.152344 
	C3524.638428,2678.800049 3531.540771,2680.484619 3538.216064,2680.759766 
	C3540.952637,2696.921875 3541.570068,2837.470215 3539.085205,2862.436523 
	C3535.020752,2862.880127 3530.665283,2863.523438 3526.286865,2863.783203 
	C3522.336670,2864.017822 3518.361572,2863.833008 3515.057373,2863.833008 
	C3498.684570,2840.776367 3482.580078,2818.900635 3467.368408,2796.420410 
	C3455.419678,2778.762695 3441.440674,2762.520508 3430.933350,2743.856445 
	C3429.710938,2741.685059 3427.086914,2740.302490 3424.564941,2735.932617 
	C3421.817383,2730.501709 3419.801270,2730.383545 3418.019531,2733.718750 
	C3417.796387,2769.699951 3417.595703,2805.681641 3417.328857,2841.662354 
	C3417.280029,2848.226318 3416.960938,2854.788086 3416.747803,2861.979248 
	C3408.985352,2864.678467 3402.103271,2864.214355 3394.264404,2862.353027 
	C3393.811768,2858.789307 3393.136963,2855.603271 3393.040283,2852.400146 
	C3391.458252,2799.919189 3392.428223,2699.705078 3394.739258,2681.796143 
	C3401.340820,2678.943604 3408.551758,2680.506592 3416.967773,2680.473145 
	C3445.887207,2721.114014 3475.069580,2762.124512 3505.787598,2805.179199 
	C3509.626709,2809.654053 3511.930176,2812.084961 3516.380859,2816.781738 
	C3515.911133,2810.282227 3515.682373,2807.117920 3515.453613,2803.953613 
z"/>
<path fill="#1E5668" opacity="1.000000" stroke="none" 
	d="
M3643.441406,2863.841797 
	C3623.619629,2863.841797 3605.715332,2863.841797 3587.114258,2863.841797 
	C3586.262939,2859.571533 3585.104980,2856.451660 3585.098145,2853.328857 
	C3584.981934,2799.383301 3584.986084,2745.437744 3585.054688,2691.491943 
	C3585.058594,2688.319824 3585.830322,2685.148682 3586.335449,2681.283447 
	C3590.380859,2680.851074 3593.562256,2680.233643 3596.746582,2680.216797 
	C3614.728027,2680.121094 3632.714600,2680.426025 3650.691162,2680.113525 
	C3684.979492,2679.517822 3710.685547,2695.352295 3730.378662,2721.980957 
	C3750.359131,2748.998535 3750.158203,2793.870361 3730.711914,2821.832764 
	C3710.015137,2851.593994 3681.394287,2865.248535 3643.441406,2863.841797 
M3703.586914,2726.667480 
	C3687.918213,2710.160400 3668.496826,2703.457520 3646.034180,2704.354248 
	C3638.063721,2704.672607 3630.067627,2704.282959 3622.088867,2704.470215 
	C3618.336426,2704.558105 3614.598145,2705.245117 3610.181641,2705.735107 
	C3609.799316,2710.229980 3609.279785,2713.446289 3609.289307,2716.660889 
	C3609.404541,2755.897461 3609.581787,2795.134033 3609.850586,2834.370117 
	C3609.858398,2835.500000 3611.049805,2836.622070 3611.689697,2837.749756 
	C3612.862549,2838.258789 3614.028809,2839.193604 3615.209229,2839.211670 
	C3628.504883,2839.416748 3641.805176,2839.693848 3655.099365,2839.542480 
	C3693.093750,2839.110596 3723.120361,2805.884521 3721.141846,2769.054199 
	C3720.321289,2753.778320 3714.987549,2740.652588 3703.586914,2726.667480 
z"/>
<path fill="#1C5466" opacity="1.000000" stroke="none" 
	d="
M4435.747559,2788.343018 
	C4451.414551,2808.789551 4475.010742,2846.223145 4482.503906,2862.807129 
	C4473.170898,2864.620605 4464.225586,2863.926514 4455.181152,2862.933105 
	C4441.821777,2841.780762 4428.762695,2820.985840 4415.575195,2800.272949 
	C4409.058594,2790.038330 4398.090820,2786.912842 4387.379395,2784.683594 
	C4379.697266,2783.084717 4371.471680,2784.094727 4360.671875,2784.135254 
	C4357.451172,2785.549561 4357.047852,2786.769531 4356.644531,2787.989502 
	C4356.362793,2805.957275 4356.112793,2823.925781 4355.781250,2841.892822 
	C4355.660156,2848.434814 4355.344238,2854.973145 4355.074707,2862.760742 
	C4347.734863,2863.198486 4341.324707,2863.581055 4333.901367,2864.023926 
	C4333.027832,2859.660156 4331.654297,2855.969971 4331.644531,2852.276123 
	C4331.505371,2798.968262 4331.535156,2745.659912 4331.582520,2692.351807 
	C4331.585449,2689.117676 4332.072266,2685.884033 4332.417480,2681.610352 
	C4336.681152,2681.099365 4340.465332,2680.275391 4344.253906,2680.252930 
	C4365.576172,2680.128662 4386.901367,2680.041504 4408.222656,2680.246338 
	C4427.167480,2680.428467 4442.897461,2687.384033 4455.700195,2701.886230 
	C4471.908691,2720.246826 4469.341797,2750.609619 4454.268555,2763.620605 
	C4448.770508,2768.365479 4443.120117,2772.932861 4435.149414,2778.742676 
	C4428.883301,2784.441895 4433.334961,2786.031494 4435.747559,2788.343018 
M4435.014648,2714.683105 
	C4426.762695,2707.061523 4416.812012,2704.316406 4405.825195,2704.374268 
	C4393.243652,2704.440674 4380.658691,2704.268555 4368.079590,2704.461182 
	C4364.326172,2704.518555 4360.586426,2705.454590 4357.113770,2705.949219 
	C4354.395020,2731.853271 4354.930664,2747.468750 4359.067871,2760.264160 
	C4373.972168,2760.264160 4389.161133,2760.279785 4404.350098,2760.249023 
	C4406.995117,2760.243652 4409.650391,2760.157227 4412.282715,2759.910400 
	C4423.418457,2758.866211 4432.815918,2754.350586 4438.922852,2744.786377 
	C4444.984863,2735.292480 4443.302734,2725.865723 4435.014648,2714.683105 
z"/>
<path fill="#1E5668" opacity="1.000000" stroke="none" 
	d="
M4104.215820,2848.281738 
	C4077.995361,2868.464355 4049.944092,2872.272217 4020.021484,2864.513428 
	C4011.113770,2862.203857 4000.802490,2860.228271 3994.445801,2854.453857 
	C3986.606934,2847.333496 3976.434082,2840.454346 3975.215576,2827.883789 
	C3974.785889,2823.449951 3973.875488,2819.062988 3973.041260,2813.739746 
	C3980.705811,2813.739746 3987.212646,2813.739746 3994.694092,2813.739746 
	C3996.201416,2817.024658 3997.769775,2820.561768 3999.437500,2824.051270 
	C4002.764404,2831.011719 4008.349609,2835.346191 4015.443848,2838.128662 
	C4030.733398,2844.125000 4046.375977,2845.002197 4062.540039,2842.712402 
	C4076.263428,2840.768066 4084.247314,2830.731689 4093.254395,2822.200195 
	C4096.883789,2818.762207 4096.687500,2809.002686 4092.876465,2805.406494 
	C4084.913818,2797.892578 4078.444824,2788.745117 4065.867676,2786.847168 
	C4046.161621,2783.873291 4026.843506,2778.201172 4007.105713,2775.631836 
	C3999.513184,2774.643311 3997.486328,2767.198730 3990.472168,2766.253662 
	C3988.052490,2765.927734 3986.166748,2760.259033 3984.383545,2756.849609 
	C3979.364258,2747.253906 3976.539551,2737.052734 3977.315430,2726.151123 
	C3978.491455,2709.628174 3987.579834,2697.932617 4000.851318,2689.085693 
	C4028.222412,2670.840088 4068.482422,2671.788574 4094.957275,2691.207764 
	C4105.003906,2698.576904 4111.503906,2708.297607 4114.025391,2720.570312 
	C4115.274414,2726.651855 4112.319336,2730.429932 4105.639648,2730.893799 
	C4101.703613,2731.167725 4097.732422,2730.944092 4096.041992,2730.944092 
	C4087.935547,2721.992432 4081.467285,2714.588135 4074.657471,2707.513184 
	C4072.942871,2705.731934 4070.237793,2704.717285 4067.811035,2703.838623 
	C4049.868652,2697.345947 4032.434814,2699.410400 4015.577148,2707.585938 
	C4006.229736,2712.119385 4001.830322,2720.586670 4002.025635,2730.326172 
	C4002.204346,2739.228516 4006.263672,2747.362793 4015.253662,2751.029541 
	C4023.212402,2754.276123 4031.424072,2757.131104 4039.767822,2759.153564 
	C4053.330566,2762.441406 4067.032959,2765.245117 4080.781250,2767.657227 
	C4117.511719,2774.102783 4130.120605,2813.755859 4111.506836,2839.519043 
	C4109.572266,2842.196777 4107.396973,2844.701172 4104.215820,2848.281738 
z"/>
<path fill="#1E5668" opacity="1.000000" stroke="none" 
	d="
M2572.653320,2842.350098 
	C2581.243164,2838.716797 2588.605225,2836.081543 2595.087158,2832.035889 
	C2609.062744,2823.313232 2605.702393,2800.652832 2593.477539,2795.304932 
	C2584.540771,2791.395752 2576.177490,2786.345947 2566.263428,2784.873047 
	C2557.710938,2783.602783 2549.261230,2781.651367 2540.749023,2780.093506 
	C2526.335693,2777.455811 2511.916504,2774.868164 2498.363037,2764.772461 
	C2496.995361,2762.434570 2494.462891,2758.551025 2492.365723,2754.445068 
	C2483.046387,2736.195068 2486.064941,2718.222168 2494.501709,2700.777344 
	C2496.435547,2696.778809 2500.086914,2692.558105 2504.010986,2690.760742 
	C2519.624268,2683.607910 2535.157715,2676.179688 2553.101562,2676.015381 
	C2570.298340,2675.858154 2586.059082,2679.880859 2600.531006,2688.938721 
	C2616.132080,2698.703369 2622.669678,2710.542236 2622.669189,2729.256104 
	C2619.764648,2729.816406 2616.690430,2730.656982 2613.565674,2730.943604 
	C2610.296143,2731.243652 2606.977783,2731.010986 2602.556641,2731.010986 
	C2600.964600,2727.228271 2599.715332,2723.613037 2597.975830,2720.251465 
	C2593.151367,2710.926758 2583.981934,2706.771729 2575.068604,2703.489502 
	C2557.194092,2696.907471 2539.547852,2699.356201 2523.149170,2708.765869 
	C2508.521240,2717.158936 2506.525879,2736.886963 2519.610596,2747.327148 
	C2525.111572,2751.716309 2532.270752,2754.759521 2539.160400,2756.531250 
	C2555.910400,2760.838379 2572.902832,2764.253662 2589.883057,2767.593262 
	C2597.241211,2769.040039 2603.742188,2771.656982 2609.827148,2776.097168 
	C2638.454590,2796.987061 2633.403320,2838.017334 2604.489258,2854.828369 
	C2578.123535,2870.157227 2550.469482,2872.143799 2521.816162,2862.382080 
	C2515.579590,2860.257324 2509.473877,2857.730713 2503.381348,2855.211426 
	C2501.596436,2854.473389 2499.964600,2853.248779 2498.434814,2852.030762 
	C2488.090820,2843.793457 2483.359863,2831.177246 2484.581299,2813.937744 
	C2490.201904,2813.602051 2495.977051,2813.257080 2501.824463,2812.907715 
	C2503.880371,2815.455811 2506.460449,2817.254150 2506.966064,2819.516357 
	C2509.506836,2830.881104 2518.195557,2835.498291 2527.717041,2839.154053 
	C2541.765625,2844.547607 2556.299805,2845.048096 2572.653320,2842.350098 
z"/>
<path fill="#1E5668" opacity="1.000000" stroke="none" 
	d="
M3130.926758,2768.520020 
	C3130.681152,2774.092529 3130.374512,2777.925537 3129.966309,2783.022217 
	C3115.988037,2784.528076 3102.790527,2783.546143 3089.664062,2783.839844 
	C3076.547852,2784.133301 3063.364746,2783.194092 3049.146729,2784.656494 
	C3048.885986,2789.741211 3048.533447,2793.575195 3048.520996,2797.409912 
	C3048.478516,2810.603271 3048.554688,2823.797119 3048.587891,2837.809082 
	C3060.856201,2840.835205 3072.110107,2839.142090 3083.182617,2839.437012 
	C3094.485107,2839.738281 3105.802246,2839.503662 3117.112793,2839.503662 
	C3128.328125,2839.503662 3139.543457,2839.503662 3151.801025,2839.503662 
	C3153.813232,2847.653809 3153.868408,2854.550537 3151.857666,2862.402100 
	C3138.103516,2865.275146 3124.183594,2863.473145 3110.398438,2863.774414 
	C3096.433105,2864.080078 3082.453613,2863.993408 3068.484375,2863.798828 
	C3054.697510,2863.606934 3040.830566,2864.725098 3026.211426,2862.850830 
	C3025.731934,2858.682861 3025.127197,2855.512695 3025.036621,2852.328125 
	C3023.501709,2798.322998 3024.418701,2699.991211 3026.727783,2681.653809 
	C3047.353760,2678.323486 3068.481445,2680.618896 3089.463379,2680.266113 
	C3109.948975,2679.921143 3130.467529,2679.813721 3151.363281,2680.527344 
	C3154.086914,2688.680664 3153.562500,2695.584717 3152.184082,2703.423340 
	C3140.507812,2705.423340 3129.250732,2704.245850 3118.090332,2704.450684 
	C3106.783447,2704.657959 3095.467529,2704.360352 3084.159668,2704.534668 
	C3073.002441,2704.706543 3061.767822,2703.719482 3049.748535,2705.434814 
	C3047.628906,2714.581055 3048.682129,2723.175049 3048.523193,2731.640625 
	C3048.362305,2740.201660 3048.487549,2748.768311 3048.487549,2758.446045 
	C3053.275635,2759.111572 3057.005371,2760.049561 3060.742432,2760.079102 
	C3080.701172,2760.237061 3100.661865,2760.163818 3120.621826,2760.179932 
	C3125.439941,2760.183838 3130.162354,2760.373291 3130.926758,2768.520020 
z"/>
<path fill="#1C5466" opacity="1.000000" stroke="none" 
	d="
M2696.644775,2787.989014 
	C2695.097412,2804.484863 2695.695801,2820.937988 2696.346436,2838.630859 
	C2730.578369,2840.876221 2763.727783,2838.348633 2797.279785,2840.127686 
	C2801.403076,2847.080078 2799.500732,2854.162842 2799.003418,2861.998779 
	C2785.002197,2865.519775 2771.061523,2863.380127 2757.306885,2863.735840 
	C2743.330078,2864.097656 2729.336426,2863.852295 2715.350586,2863.805176 
	C2701.508789,2863.758301 2687.667480,2863.627441 2675.510742,2863.544922 
	C2673.393555,2861.597656 2672.766113,2861.227539 2672.456787,2860.678467 
	C2672.145996,2860.125977 2672.037598,2859.395508 2672.035645,2858.742676 
	C2671.860352,2803.477051 2671.693115,2748.211182 2671.576172,2692.945557 
	C2671.569092,2689.659424 2671.979004,2686.372070 2672.246338,2682.303955 
	C2685.979248,2678.117676 2699.923828,2680.715820 2713.621338,2680.282471 
	C2727.593262,2679.840088 2741.590332,2680.150391 2755.576416,2680.193848 
	C2769.456543,2680.237305 2783.336914,2680.358643 2797.909912,2680.450195 
	C2800.580322,2688.457520 2799.922607,2695.349854 2798.800293,2703.708008 
	C2781.675049,2705.203369 2765.144775,2704.264404 2748.673584,2704.433105 
	C2732.090332,2704.603271 2715.503662,2704.470703 2697.808350,2704.470703 
	C2697.050293,2708.988525 2695.955322,2712.680420 2695.895264,2716.389160 
	C2695.700928,2728.372803 2695.886963,2740.363037 2696.127441,2755.248047 
	C2697.548584,2758.547607 2698.768799,2758.949219 2699.988770,2759.350830 
	C2718.499756,2759.628662 2737.010986,2759.873535 2755.521240,2760.201904 
	C2762.029541,2760.317139 2768.534180,2760.636230 2776.332275,2760.906982 
	C2776.689697,2768.170654 2777.001221,2774.505127 2777.338135,2781.355469 
	C2764.228516,2785.892822 2751.681396,2783.217773 2739.416260,2783.718750 
	C2727.520264,2784.205078 2715.591309,2783.895508 2700.765625,2784.132568 
	C2697.451172,2785.549561 2697.048096,2786.769287 2696.644775,2787.989014 
z"/>
<path fill="#1E5668" opacity="1.000000" stroke="none" 
	d="
M2099.310303,2840.822266 
	C2109.689941,2834.430176 2116.913330,2826.589355 2123.608643,2818.616455 
	C2129.563477,2811.525391 2131.770996,2802.487305 2131.628418,2792.673340 
	C2131.192871,2762.697998 2131.497070,2732.711670 2131.511963,2702.729736 
	C2131.515381,2696.148438 2131.512451,2689.566895 2131.512451,2682.589355 
	C2139.416504,2678.985352 2146.385254,2680.167236 2154.442139,2681.196777 
	C2154.928223,2686.060303 2155.747559,2690.533203 2155.762939,2695.008545 
	C2155.874023,2727.655273 2156.033203,2760.304443 2155.776123,2792.949463 
	C2155.358398,2846.033936 2109.938477,2878.558594 2058.328125,2864.582520 
	C2041.535767,2860.035156 2033.199219,2846.709473 2020.966431,2837.439209 
	C2015.663696,2825.261719 2009.346680,2813.159912 2009.231567,2799.640625 
	C2008.908691,2761.676270 2009.289185,2723.706055 2009.486694,2685.738525 
	C2009.492798,2684.565918 2010.540405,2683.398926 2011.595459,2681.203125 
	C2017.486450,2681.203125 2023.883667,2681.203125 2031.529053,2681.203125 
	C2032.114136,2685.393311 2033.241089,2689.798828 2033.263184,2694.209717 
	C2033.419800,2725.523682 2033.275635,2756.838623 2033.418945,2788.152832 
	C2033.446167,2794.096436 2033.631104,2800.194580 2034.937622,2805.950439 
	C2040.232666,2829.278564 2058.538086,2843.962891 2082.176025,2843.883545 
	C2087.399902,2843.866211 2092.618652,2842.253418 2099.310303,2840.822266 
z"/>
<path fill="#1C5466" opacity="1.000000" stroke="none" 
	d="
M3908.201660,2708.444824 
	C3908.343506,2698.604248 3908.485107,2690.703613 3908.639648,2682.081299 
	C3916.420654,2679.370117 3923.320312,2680.077393 3930.999512,2681.085938 
	C3931.551025,2684.303711 3932.351807,2686.818115 3932.357666,2689.334961 
	C3932.441162,2725.324951 3932.952393,2761.325195 3932.261475,2797.302246 
	C3931.633301,2830.011963 3909.514404,2857.833740 3877.815186,2865.482178 
	C3849.860840,2872.227051 3823.824463,2867.058594 3803.902588,2845.134521 
	C3792.078369,2832.122070 3786.507080,2815.634521 3786.637207,2797.555176 
	C3786.823975,2771.563232 3786.679688,2745.569336 3786.680176,2719.576172 
	C3786.680176,2710.245361 3786.602051,2700.913086 3786.744141,2691.584229 
	C3786.792725,2688.404541 3787.404297,2685.233398 3787.855225,2681.193115 
	C3794.520020,2681.193115 3800.259766,2681.193115 3807.352295,2681.193115 
	C3807.975098,2685.248535 3809.200439,2689.609375 3809.225830,2693.976807 
	C3809.399170,2723.967773 3809.106934,2753.962891 3809.459961,2783.950684 
	C3809.560791,2792.522217 3810.158203,2801.401611 3812.502441,2809.573242 
	C3818.991211,2832.191895 3841.382568,2846.429199 3864.627686,2843.602539 
	C3873.272461,2842.551270 3881.640381,2840.598145 3886.547852,2832.192627 
	C3904.945801,2820.442139 3909.514404,2803.190430 3908.477783,2782.351807 
	C3907.287354,2758.417236 3908.201660,2734.378418 3908.201660,2708.444824 
z"/>
<path fill="#1E5668" opacity="1.000000" stroke="none" 
	d="
M4536.051758,2732.157471 
	C4529.755371,2723.805664 4524.739746,2716.246826 4519.558594,2708.803223 
	C4514.751465,2701.896973 4509.626953,2695.207520 4504.981934,2688.197510 
	C4504.035156,2686.769287 4504.601074,2684.339355 4504.414062,2681.544434 
	C4512.810547,2679.054199 4521.200195,2680.318115 4530.367676,2680.572998 
	C4546.437988,2702.941895 4562.564941,2725.389648 4578.722168,2747.879395 
	C4589.806641,2743.792236 4589.242188,2732.348633 4596.150391,2726.206055 
	C4603.200195,2719.938477 4607.875488,2710.965820 4613.439453,2703.071289 
	C4618.666016,2695.655762 4623.695312,2688.101807 4628.609375,2680.904785 
	C4638.453125,2680.904785 4646.887695,2680.904785 4657.126953,2680.904785 
	C4655.330566,2684.990234 4654.525879,2688.077148 4652.811523,2690.526855 
	C4635.350098,2715.471191 4618.008789,2740.507812 4600.010254,2765.061768 
	C4594.567871,2772.486084 4592.252930,2779.957275 4592.391113,2788.957520 
	C4592.707520,2809.556641 4592.536133,2830.164307 4592.434570,2850.767822 
	C4592.415527,2854.591064 4591.792969,2858.411133 4591.382812,2862.968750 
	C4583.851562,2862.968750 4577.422363,2862.968750 4569.864258,2862.968750 
	C4569.295410,2858.457031 4568.296387,2854.032471 4568.254883,2849.598877 
	C4568.075684,2830.325928 4567.313965,2810.997559 4568.484863,2791.794434 
	C4569.232910,2779.527588 4564.727051,2769.658203 4557.307617,2761.765869 
	C4549.076172,2753.009277 4543.555176,2742.843018 4536.051758,2732.157471 
z"/>
<path fill="#1E5668" opacity="1.000000" stroke="none" 
	d="
M2900.175781,2839.430420 
	C2900.175049,2822.199707 2899.436523,2806.837158 2900.426514,2791.586914 
	C2901.115723,2780.976562 2897.900146,2772.272949 2891.583008,2764.637451 
	C2872.096436,2741.083984 2857.118896,2714.286133 2837.923584,2690.522705 
	C2836.245117,2688.444824 2836.816895,2684.549316 2836.228027,2680.753174 
	C2845.262207,2680.753174 2853.163330,2680.753174 2862.484863,2680.753174 
	C2878.215088,2702.669189 2894.367188,2725.172852 2910.589111,2747.773926 
	C2921.857910,2744.186768 2921.015381,2732.483643 2927.881104,2726.390137 
	C2934.949707,2720.116211 2939.614990,2711.106934 2945.211426,2703.209717 
	C2950.471680,2695.787354 2955.574951,2688.253418 2960.706299,2680.827637 
	C2970.298096,2680.827637 2978.778076,2680.827637 2989.070801,2680.827637 
	C2986.966064,2685.424072 2985.903076,2689.115967 2983.815430,2692.088623 
	C2966.284912,2717.050781 2948.701660,2741.978271 2930.811768,2766.683105 
	C2926.281006,2772.939941 2924.304932,2779.396484 2924.413330,2787.027832 
	C2924.667969,2805.002197 2924.489990,2822.982422 2924.487793,2840.960449 
	C2924.486816,2847.562988 2924.487549,2854.165771 2924.487549,2860.959473 
	C2916.927002,2865.446045 2909.841797,2863.539307 2902.670898,2863.077637 
	C2898.377686,2855.936523 2900.956055,2848.430908 2900.175781,2839.430420 
z"/>
<path fill="#1C5466" opacity="1.000000" stroke="none" 
	d="
M4236.461914,2784.000488 
	C4236.295410,2811.182129 4236.824219,2836.380615 4236.092285,2862.492920 
	C4227.911133,2864.250732 4221.053223,2864.253906 4212.836426,2862.358887 
	C4211.633301,2848.648438 4212.359863,2835.423584 4212.229004,2822.250000 
	C4212.104004,2809.594238 4212.202148,2796.936035 4212.202148,2784.279053 
	C4212.202148,2770.955811 4212.344238,2757.630615 4212.161133,2744.309814 
	C4211.988770,2731.788330 4212.989258,2719.203369 4211.342285,2705.530029 
	C4192.385254,2702.925049 4173.785156,2705.851074 4155.862305,2703.806396 
	C4150.952637,2696.169922 4153.708496,2689.234863 4153.767090,2680.969482 
	C4170.114258,2679.423584 4185.319824,2680.388916 4200.459473,2680.223633 
	C4216.445312,2680.049072 4232.436523,2680.045898 4248.422363,2680.224365 
	C4263.577637,2680.393555 4278.797852,2679.399170 4294.943359,2680.989258 
	C4295.277832,2688.644775 4295.558594,2695.071289 4295.874512,2702.290527 
	C4276.833984,2707.038818 4258.111816,2702.562744 4238.667480,2705.412109 
	C4237.992676,2708.687500 4236.611328,2712.363525 4236.576172,2716.052490 
	C4236.365723,2738.033936 4236.466309,2760.018066 4236.461914,2784.000488 
z"/>
<path fill="#1E5668" opacity="1.000000" stroke="none" 
	d="
M2363.179932,2682.078613 
	C2364.751709,2691.404297 2365.289307,2699.368896 2365.309570,2707.334717 
	C2365.402100,2743.964844 2365.318604,2780.595703 2365.379395,2817.226074 
	C2365.390381,2823.776123 2365.783447,2830.325439 2366.030273,2837.781738 
	C2375.014893,2840.725098 2383.642822,2839.234863 2392.051514,2839.449219 
	C2401.369385,2839.687256 2410.698486,2839.455078 2420.022217,2839.517822 
	C2428.557861,2839.575439 2437.093018,2839.753174 2446.538330,2839.891113 
	C2448.245361,2848.101807 2448.271240,2854.964355 2446.724365,2861.684326 
	C2427.891602,2864.773193 2358.136963,2864.579346 2343.039551,2861.562500 
	C2340.345459,2845.782715 2340.137207,2701.004883 2342.898193,2681.880371 
	C2348.828613,2678.830811 2355.421631,2680.297607 2363.179932,2682.078613 
z"/>
<path fill="#1E5668" opacity="1.000000" stroke="none" 
	d="
M2223.011230,2708.529785 
	C2223.154541,2751.649902 2223.284912,2792.833984 2223.508545,2834.017822 
	C2223.514893,2835.172607 2224.517334,2836.322510 2225.731201,2838.923828 
	C2250.589355,2840.562744 2276.348145,2838.523926 2302.922363,2840.079102 
	C2305.218506,2847.614014 2304.723633,2854.533203 2303.509033,2861.394775 
	C2289.000488,2864.454346 2225.923584,2865.024658 2200.913818,2862.278076 
	C2197.944580,2842.956055 2199.947998,2823.181152 2199.594971,2803.536377 
	C2199.225342,2782.944824 2199.435059,2762.341064 2199.534668,2741.743408 
	C2199.630127,2721.940918 2199.056396,2702.114014 2200.001221,2681.277344 
	C2207.579834,2681.277344 2213.932129,2681.277344 2220.635254,2681.277344 
	C2225.025879,2689.393555 2222.247803,2698.184814 2223.011230,2708.529785 
z"/>
<path fill="#1C5466" opacity="1.000000" stroke="none" 
	d="
M3348.461914,2783.998779 
	C3348.124756,2811.108643 3349.196533,2836.248047 3347.715332,2862.250244 
	C3340.170166,2864.492920 3333.307861,2864.102539 3326.237793,2862.737061 
	C3325.459961,2860.250244 3324.388672,2858.418701 3324.385742,2856.585693 
	C3324.297607,2798.885498 3324.313721,2741.185303 3324.313721,2683.269531 
	C3331.553711,2678.476074 3338.701172,2680.634277 3346.770508,2680.722656 
	C3347.365234,2685.530029 3348.364014,2689.949463 3348.385742,2694.373535 
	C3348.528076,2723.581787 3348.460693,2752.790527 3348.461914,2783.998779 
z"/>
<path fill="#F0F3F4" opacity="1.000000" stroke="none" 
	d="
M3513.931152,2804.013428 
	C3515.682373,2807.117920 3515.911133,2810.282227 3516.380859,2816.781738 
	C3511.930176,2812.084961 3509.626709,2809.654053 3506.835205,2805.960938 
	C3508.367676,2804.490234 3510.387939,2804.281738 3513.931152,2804.013428 
z"/>
<path fill="#F8E9CE" opacity="1.000000" stroke="none" 
	d="
M1040.739014,2747.952881 
	C1037.840820,2745.950195 1036.872314,2743.362793 1039.682617,2741.969971 
	C1042.633545,2740.507324 1043.664185,2743.343506 1044.401245,2746.750488 
	C1043.506836,2747.872559 1042.715210,2747.871582 1040.739014,2747.952881 
z"/>
<path fill="#F8E9CE" opacity="1.000000" stroke="none" 
	d="
M571.795410,2729.766602 
	C573.357971,2729.392090 575.217163,2729.851562 576.425476,2730.997559 
	C577.449768,2731.968994 577.721924,2733.733643 578.326965,2735.147217 
	C576.692932,2735.070801 575.058960,2734.994385 572.692139,2734.037109 
	C571.909546,2732.403809 571.859619,2731.650879 571.795410,2729.766602 
z"/>
<path fill="#BECED3" opacity="1.000000" stroke="none" 
	d="
M4435.827637,2786.839111 
	C4433.334961,2786.031494 4428.883301,2784.441895 4434.130859,2779.618164 
	C4435.637207,2781.333496 4435.772461,2783.334473 4435.827637,2786.839111 
z"/>
<path fill="#BECED3" opacity="1.000000" stroke="none" 
	d="
M3419.443115,2734.444336 
	C3419.801270,2730.383545 3421.817383,2730.501709 3423.980957,2734.668213 
	C3422.918945,2735.740234 3421.892578,2735.455078 3419.443115,2734.444336 
z"/>
<path fill="#F0F3F4" opacity="1.000000" stroke="none" 
	d="
M2699.625977,2758.619385 
	C2698.768799,2758.949219 2697.548584,2758.547607 2696.486816,2757.078613 
	C2697.723145,2756.350098 2698.595947,2756.975586 2699.625977,2758.619385 
z"/>
<path fill="#F0F3F4" opacity="1.000000" stroke="none" 
	d="
M2697.376465,2787.626953 
	C2697.048096,2786.769287 2697.451172,2785.549561 2698.921387,2784.489502 
	C2699.648438,2785.727539 2699.021973,2786.599365 2697.376465,2787.626953 
z"/>
<path fill="#F0F3F4" opacity="1.000000" stroke="none" 
	d="
M4357.376465,2787.627686 
	C4357.047852,2786.769531 4357.451172,2785.549561 4358.921875,2784.489502 
	C4359.647949,2785.726807 4359.021484,2786.599121 4357.376465,2787.627686 
z"/>
<path fill="#FFFEFD" opacity="1.000000" stroke="none" 
	d="
M959.042358,2441.768799 
	C940.131226,2443.245361 922.212646,2443.916504 904.326172,2443.423096 
	C871.053528,2442.505127 837.797302,2440.960449 804.540527,2439.531738 
	C800.107788,2439.341553 795.711243,2438.309570 791.906860,2437.755859 
	C789.725464,2430.767578 794.108521,2427.925781 797.090637,2424.697754 
	C820.591431,2399.259033 844.223633,2373.941895 867.782410,2348.556641 
	C917.613586,2294.862061 967.418335,2241.142822 1017.262573,2187.460205 
	C1019.944397,2184.572021 1022.888916,2181.927734 1026.278442,2178.615479 
	C1029.293701,2180.702393 1032.269043,2182.179199 1034.509399,2184.397949 
	C1078.537354,2228.003662 1122.486694,2271.688721 1166.421143,2315.388916 
	C1168.755493,2317.710693 1170.816650,2320.307617 1173.012817,2322.785156 
	C1171.204468,2334.218018 1169.459229,2345.251953 1167.594238,2357.042480 
	C1155.980835,2366.788086 1058.596436,2422.279053 1038.116943,2430.518311 
	C1035.769653,2428.791504 1033.024170,2426.989502 1030.521973,2424.896729 
	C1013.964111,2411.045898 981.411743,2410.957520 964.543152,2433.832275 
	C962.963867,2435.974121 961.543579,2438.233398 959.042358,2441.768799 
z"/>
<path fill="#F7F9F9" opacity="1.000000" stroke="none" 
	d="
M1019.247314,2451.917480 
	C1023.102478,2458.816162 1024.010742,2464.730469 1020.551636,2470.219727 
	C1018.179993,2473.983398 1015.033875,2477.627930 1011.416931,2480.157471 
	C1004.837219,2484.759033 997.687378,2484.531982 991.060486,2479.753906 
	C984.105591,2474.739014 980.186951,2467.827881 981.791321,2459.287842 
	C983.354553,2450.965820 988.336365,2444.956787 997.285828,2443.221436 
	C1005.801453,2441.569824 1012.951965,2443.709717 1019.247314,2451.917480 
z"/>
<path fill="#F7F9F9" opacity="1.000000" stroke="none" 
	d="
M1272.521851,2994.967285 
	C1266.602173,2990.022949 1263.709106,2985.070557 1263.526855,2978.707275 
	C1263.250366,2969.053711 1269.057739,2961.472656 1279.097290,2958.491699 
	C1287.590942,2955.969971 1297.770996,2960.795898 1302.122314,2969.406982 
	C1306.110596,2977.299561 1304.308594,2986.625488 1297.302246,2992.739990 
	C1290.216064,2998.924316 1282.420898,3001.007080 1272.521851,2994.967285 
z"/>
<path fill="#F7F9F9" opacity="1.000000" stroke="none" 
	d="
M723.531616,2684.412109 
	C717.913147,2674.375244 719.205566,2666.392334 725.858215,2659.277588 
	C732.729980,2651.928467 740.841553,2650.617432 749.362061,2655.218994 
	C758.253723,2660.020752 762.260010,2669.215576 759.653015,2678.837891 
	C757.324280,2687.432861 749.782593,2692.750488 740.194580,2692.871094 
	C733.751587,2692.952148 728.499634,2690.765869 723.531616,2684.412109 
z"/>
<path fill="#F7F9F9" opacity="1.000000" stroke="none" 
	d="
M1466.628784,2059.187012 
	C1460.899780,2063.431885 1455.755371,2064.233154 1450.398438,2063.288330 
	C1439.874512,2061.432129 1431.742798,2049.694824 1434.010254,2039.922729 
	C1436.776123,2028.002197 1447.907837,2020.936279 1459.327026,2023.853149 
	C1469.900146,2026.553833 1476.877197,2037.845947 1473.763062,2048.208984 
	C1472.675537,2051.828125 1469.854370,2054.926514 1466.628784,2059.187012 
z"/>
<path fill="#FFFFFF" opacity="1.000000" stroke="none" 
	d="
M586.819824,2743.236328 
	C585.619507,2743.240234 585.317505,2742.375488 585.015442,2741.510742 
	C585.916321,2741.796387 586.817200,2742.081787 586.819824,2743.236328 
z"/>
<path fill="#FBFCFC" opacity="1.000000" stroke="none" 
	d="
M1641.733643,2498.606934 
	C1665.956177,2534.101074 1679.649658,2572.052490 1682.363403,2613.386230 
	C1686.624634,2678.288818 1666.975830,2735.641602 1623.783081,2784.286865 
	C1589.080322,2823.370361 1545.774292,2848.583252 1494.164429,2857.768555 
	C1416.941162,2871.511963 1349.154175,2851.398438 1291.689819,2797.904541 
	C1254.929443,2763.684082 1232.160156,2721.533936 1223.193115,2672.102783 
	C1211.548828,2607.914551 1224.356445,2548.691650 1262.408447,2495.905762 
	C1303.070312,2439.499756 1358.430908,2406.413818 1428.065430,2399.706787 
	C1493.560669,2393.398438 1551.867065,2411.693848 1602.104858,2454.603027 
	C1616.863281,2467.208496 1629.788208,2481.505371 1641.733643,2498.606934 
M1578.731201,2716.471680 
	C1604.726929,2677.656738 1611.022705,2635.195557 1599.865601,2590.487549 
	C1580.630127,2513.407471 1501.615845,2464.177002 1423.686890,2478.343994 
	C1341.115234,2493.354980 1282.904175,2573.432373 1299.801880,2660.624512 
	C1315.712036,2742.722412 1398.766235,2798.494873 1480.690552,2781.333496 
	C1520.924316,2772.905518 1553.154053,2752.366699 1578.731201,2716.471680 
z"/>
<path fill="#F7F9F9" opacity="1.000000" stroke="none" 
	d="
M1906.545898,2783.766846 
	C1914.777466,2785.107910 1921.623413,2785.440918 1927.513794,2787.985840 
	C1937.848511,2792.450439 1944.450684,2800.218994 1944.291382,2812.503662 
	C1944.141602,2824.052246 1937.365845,2830.813477 1928.037354,2835.362061 
	C1923.410156,2837.618408 1917.988037,2839.224854 1912.883057,2839.347168 
	C1893.755371,2839.805664 1874.610107,2839.530273 1854.642700,2839.530273 
	C1849.982910,2821.269043 1853.707886,2803.745361 1852.134399,2785.753418 
	C1861.960693,2782.552734 1870.542969,2784.027588 1878.918091,2783.802979 
	C1887.516235,2783.572266 1896.125488,2783.753662 1906.545898,2783.766846 
z"/>
<path fill="#F7F9F9" opacity="1.000000" stroke="none" 
	d="
M1876.343018,2704.405029 
	C1887.508789,2704.415039 1896.797729,2704.283447 1906.079956,2704.473389 
	C1916.416138,2704.684570 1925.625000,2707.980957 1932.890259,2715.611084 
	C1942.566528,2725.772705 1942.508545,2739.485107 1932.674927,2749.419922 
	C1927.425171,2754.723877 1921.017212,2758.079102 1913.617554,2759.450439 
	C1905.309937,2760.989990 1866.604248,2760.268066 1853.328003,2758.117920 
	C1851.577759,2750.078125 1852.591309,2741.510254 1852.431274,2733.059082 
	C1852.269287,2724.501465 1852.395752,2715.938232 1852.395752,2707.621826 
	C1859.950439,2702.421387 1867.472412,2705.265137 1876.343018,2704.405029 
z"/>
<path fill="#F7F9F9" opacity="1.000000" stroke="none" 
	d="
M3704.529297,2727.818359 
	C3714.987549,2740.652588 3720.321289,2753.778320 3721.141846,2769.054199 
	C3723.120361,2805.884521 3693.093750,2839.110596 3655.099365,2839.542480 
	C3641.805176,2839.693848 3628.504883,2839.416748 3615.209229,2839.211670 
	C3614.028809,2839.193604 3612.862549,2838.258789 3611.689453,2837.748779 
	C3611.049805,2836.622070 3609.858398,2835.500000 3609.850586,2834.370117 
	C3609.581787,2795.134033 3609.404541,2755.897461 3609.289307,2716.660889 
	C3609.279785,2713.446289 3609.799316,2710.229980 3610.181641,2705.735107 
	C3614.598145,2705.245117 3618.336426,2704.558105 3622.088867,2704.470215 
	C3630.067627,2704.282959 3638.063721,2704.672607 3646.034180,2704.354248 
	C3668.496826,2703.457520 3687.918213,2710.160400 3704.529297,2727.818359 
z"/>
<path fill="#F7F9F9" opacity="1.000000" stroke="none" 
	d="
M4436.033203,2715.825439 
	C4443.302734,2725.865723 4444.984863,2735.292480 4438.922852,2744.786377 
	C4432.815918,2754.350586 4423.418457,2758.866211 4412.282715,2759.910400 
	C4409.650391,2760.157227 4406.995117,2760.243652 4404.350098,2760.249023 
	C4389.161133,2760.279785 4373.972168,2760.264160 4359.067871,2760.264160 
	C4354.930664,2747.468750 4354.395020,2731.853271 4357.113770,2705.949219 
	C4360.586426,2705.454590 4364.326172,2704.518555 4368.079590,2704.461182 
	C4380.658691,2704.268555 4393.243652,2704.440674 4405.825195,2704.374268 
	C4416.812012,2704.316406 4426.762695,2707.061523 4436.033203,2715.825439 
z"/>
<path fill="#1C5466" opacity="1.000000" stroke="none" 
	d="
M1577.872070,2717.645264 
	C1553.154053,2752.366699 1520.924316,2772.905518 1480.690552,2781.333496 
	C1398.766235,2798.494873 1315.712036,2742.722412 1299.801880,2660.624512 
	C1282.904175,2573.432373 1341.115234,2493.354980 1423.686890,2478.343994 
	C1501.615845,2464.177002 1580.630127,2513.407471 1599.865601,2590.487549 
	C1611.022705,2635.195557 1604.726929,2677.656738 1577.872070,2717.645264 
M1508.482422,2516.567139 
	C1485.237305,2504.697510 1460.573730,2500.727295 1434.798950,2503.874268 
	C1367.401245,2512.102539 1311.209961,2577.025879 1325.872192,2653.956787 
	C1338.284546,2719.081787 1397.057129,2758.814453 1454.731201,2757.423096 
	C1531.518433,2755.570312 1596.412842,2680.170898 1573.942261,2597.164551 
	C1564.406128,2561.937988 1542.706055,2535.938232 1508.482422,2516.567139 
z"/>
<path fill="#FBFCFC" opacity="1.000000" stroke="none" 
	d="
M1509.825684,2517.251953 
	C1542.706055,2535.938232 1564.406128,2561.937988 1573.942261,2597.164551 
	C1596.412842,2680.170898 1531.518433,2755.570312 1454.731201,2757.423096 
	C1397.057129,2758.814453 1338.284546,2719.081787 1325.872192,2653.956787 
	C1311.209961,2577.025879 1367.401245,2512.102539 1434.798950,2503.874268 
	C1460.573730,2500.727295 1485.237305,2504.697510 1509.825684,2517.251953 
M1404.371460,2633.220947 
	C1406.324707,2639.510498 1407.436523,2646.228271 1410.380005,2652.014160 
	C1421.782104,2674.427979 1449.271851,2682.925537 1471.850952,2671.539307 
	C1493.435425,2660.654541 1503.189819,2634.272461 1493.796143,2612.185059 
	C1483.888428,2588.889160 1457.617065,2577.792480 1434.299194,2587.032959 
	C1414.820190,2594.751709 1405.845459,2609.775391 1404.371460,2633.220947 
z"/>
<path fill="#E4A330" opacity="1.000000" stroke="none" 
	d="
M1404.353027,2631.616455 
	C1405.845459,2609.775391 1414.820190,2594.751709 1434.299194,2587.032959 
	C1457.617065,2577.792480 1483.888428,2588.889160 1493.796143,2612.185059 
	C1503.189819,2634.272461 1493.435425,2660.654541 1471.850952,2671.539307 
	C1449.271851,2682.925537 1421.782104,2674.427979 1410.380005,2652.014160 
	C1407.436523,2646.228271 1406.324707,2639.510498 1404.353027,2631.616455 
z"/>
</svg>
